<?xml version="1.0" encoding="UTF-8" standalone="no"?>
<!DOCTYPE svg PUBLIC "-//W3C//DTD SVG 1.1//EN"
 "http://www.w3.org/Graphics/SVG/1.1/DTD/svg11.dtd">
<!-- Generated by graphviz version 13.0.1 (20250615.1724)
 -->
<!-- Title: dependency&#45;cruiser output Pages: 1 -->
<svg width="243pt" height="200pt"
 viewBox="0.00 0.00 243.00 200.00" xmlns="http://www.w3.org/2000/svg" xmlns:xlink="http://www.w3.org/1999/xlink">
<g id="graph0" class="graph" transform="scale(1 1) rotate(0) translate(4 196)">
<title>dependency&#45;cruiser output</title>
<polygon fill="white" stroke="none" points="-4,4 -4,-196 239,-196 239,4 -4,4"/>
<g id="clust1" class="cluster">
<title>cluster_node_modules</title>
<path fill="#ffffff" stroke="black" stroke-width="2" d="M90,-8C90,-8 145,-8 145,-8 151,-8 157,-14 157,-20 157,-20 157,-80 157,-80 157,-86 151,-92 145,-92 145,-92 90,-92 90,-92 84,-92 78,-86 78,-80 78,-80 78,-20 78,-20 78,-14 84,-8 90,-8"/>
<text xml:space="preserve" text-anchor="middle" x="117.5" y="-79.45" font-family="Helvetica,sans-Serif" font-weight="bold" font-size="9.00">node_modules</text>
</g>
<g id="clust2" class="cluster">
<title>cluster_src</title>
<path fill="#ffffff" stroke="black" stroke-width="2" d="M20,-100C20,-100 215,-100 215,-100 221,-100 227,-106 227,-112 227,-112 227,-172 227,-172 227,-178 221,-184 215,-184 215,-184 20,-184 20,-184 14,-184 8,-178 8,-172 8,-172 8,-112 8,-112 8,-106 14,-100 20,-100"/>
<text xml:space="preserve" text-anchor="middle" x="117.5" y="-171.45" font-family="Helvetica,sans-Serif" font-weight="bold" font-size="9.00">src</text>
</g>
<!-- node_modules/react -->
<g id="node1" class="node">
<title>node_modules/react</title>
<g id="a_node1"><a xlink:href="https://www.npmjs.com/package/react" xlink:title="react">
<polygon fill="#c40b0a" fill-opacity="0.101961" stroke="black" points="144,-34.25 92.06,-34.25 90,-32.19 90,-15.75 141.94,-15.75 144,-17.81 144,-34.25"/>
<polyline fill="none" stroke="black" points="141.94,-32.19 90,-32.19"/>
<polyline fill="none" stroke="black" points="141.94,-32.19 141.94,-15.75"/>
<polyline fill="none" stroke="black" points="141.94,-32.19 144,-34.25"/>
<text xml:space="preserve" text-anchor="start" x="106.88" y="-21.7" font-family="Helvetica,sans-Serif" font-size="9.00" fill="#c40b0a">react</text>
</a>
</g>
</g>
<!-- node_modules/react&#45;dom -->
<g id="node2" class="node">
<title>node_modules/react&#45;dom</title>
<g id="a_node2"><a xlink:href="https://www.npmjs.com/package/react-dom" xlink:title="react&#45;dom">
<polygon fill="#c40b0a" fill-opacity="0.101961" stroke="black" points="145.62,-65.25 90.43,-65.25 88.38,-63.19 88.38,-46.75 143.57,-46.75 145.62,-48.81 145.62,-65.25"/>
<polyline fill="none" stroke="black" points="143.57,-63.19 88.38,-63.19"/>
<polyline fill="none" stroke="black" points="143.57,-63.19 143.57,-46.75"/>
<polyline fill="none" stroke="black" points="143.57,-63.19 145.62,-65.25"/>
<text xml:space="preserve" text-anchor="start" x="96.38" y="-52.7" font-family="Helvetica,sans-Serif" font-size="9.00" fill="#c40b0a">react&#45;dom</text>
</a>
</g>
</g>
<!-- src/App.css -->
<g id="node3" class="node">
<title>src/App.css</title>
<g id="a_node3"><a xlink:href="src/App.css" xlink:title="App.css">
<path fill="#ffffcc" stroke="black" d="M212.83,-126.25C212.83,-126.25 171.17,-126.25 171.17,-126.25 168.08,-126.25 165,-123.17 165,-120.08 165,-120.08 165,-113.92 165,-113.92 165,-110.83 168.08,-107.75 171.17,-107.75 171.17,-107.75 212.83,-107.75 212.83,-107.75 215.92,-107.75 219,-110.83 219,-113.92 219,-113.92 219,-120.08 219,-120.08 219,-123.17 215.92,-126.25 212.83,-126.25"/>
<text xml:space="preserve" text-anchor="start" x="175.88" y="-113.7" font-family="Helvetica,sans-Serif" font-size="9.00">App.css</text>
</a>
</g>
</g>
<!-- src/App.jsx -->
<g id="node4" class="node">
<title>src/App.jsx</title>
<g id="a_node4"><a xlink:href="src/App.jsx" xlink:title="App.jsx">
<path fill="#ffff77" stroke="black" d="M137.83,-126.25C137.83,-126.25 96.17,-126.25 96.17,-126.25 93.08,-126.25 90,-123.17 90,-120.08 90,-120.08 90,-113.92 90,-113.92 90,-110.83 93.08,-107.75 96.17,-107.75 96.17,-107.75 137.83,-107.75 137.83,-107.75 140.92,-107.75 144,-110.83 144,-113.92 144,-113.92 144,-120.08 144,-120.08 144,-123.17 140.92,-126.25 137.83,-126.25"/>
<text xml:space="preserve" text-anchor="start" x="102" y="-113.7" font-family="Helvetica,sans-Serif" font-size="9.00">App.jsx</text>
</a>
</g>
</g>
<!-- src/App.jsx&#45;&gt;src/App.css -->
<g id="edge1" class="edge">
<title>src/App.jsx&#45;&gt;src/App.css</title>
<path fill="none" stroke="#000000" stroke-width="2" stroke-opacity="0.200000" d="M144.35,-117C148.12,-117 152.05,-117 155.95,-117"/>
<polygon fill="#000000" fill-opacity="0.200000" stroke="#000000" stroke-width="2" stroke-opacity="0.200000" points="155.9,-119.1 161.9,-117 155.9,-114.9 155.9,-119.1"/>
</g>
<!-- src/index.css -->
<g id="node5" class="node">
<title>src/index.css</title>
<g id="a_node5"><a xlink:href="src/index.css" xlink:title="index.css">
<path fill="#ffffcc" stroke="black" d="M137.96,-157.25C137.96,-157.25 96.04,-157.25 96.04,-157.25 92.96,-157.25 89.88,-154.17 89.88,-151.08 89.88,-151.08 89.88,-144.92 89.88,-144.92 89.88,-141.83 92.96,-138.75 96.04,-138.75 96.04,-138.75 137.96,-138.75 137.96,-138.75 141.04,-138.75 144.12,-141.83 144.12,-144.92 144.12,-144.92 144.12,-151.08 144.12,-151.08 144.12,-154.17 141.04,-157.25 137.96,-157.25"/>
<text xml:space="preserve" text-anchor="start" x="97.88" y="-144.7" font-family="Helvetica,sans-Serif" font-size="9.00">index.css</text>
</a>
</g>
</g>
<!-- src/main.jsx -->
<g id="node6" class="node">
<title>src/main.jsx</title>
<g id="a_node6"><a xlink:href="src/main.jsx" xlink:title="main.jsx">
<path fill="#ffff77" stroke="black" d="M63.83,-126.25C63.83,-126.25 22.17,-126.25 22.17,-126.25 19.08,-126.25 16,-123.17 16,-120.08 16,-120.08 16,-113.92 16,-113.92 16,-110.83 19.08,-107.75 22.17,-107.75 22.17,-107.75 63.83,-107.75 63.83,-107.75 66.92,-107.75 70,-110.83 70,-113.92 70,-113.92 70,-120.08 70,-120.08 70,-123.17 66.92,-126.25 63.83,-126.25"/>
<text xml:space="preserve" text-anchor="start" x="26.12" y="-113.7" font-family="Helvetica,sans-Serif" font-size="9.00">main.jsx</text>
</a>
</g>
</g>
<!-- src/main.jsx&#45;&gt;node_modules/react -->
<g id="edge4" class="edge">
<title>src/main.jsx&#45;&gt;node_modules/react</title>
<path fill="none" stroke="#000000" stroke-opacity="0.200000" d="M45.92,-107.28C49.54,-91.4 58.78,-59.8 78,-41 79.69,-39.35 81.57,-37.86 83.58,-36.51"/>
<polygon fill="#000000" fill-opacity="0.200000" stroke="#000000" stroke-opacity="0.200000" points="84.39,-38.47 88.54,-33.65 82.3,-34.82 84.39,-38.47"/>
</g>
<!-- src/main.jsx&#45;&gt;node_modules/react&#45;dom -->
<g id="edge5" class="edge">
<title>src/main.jsx&#45;&gt;node_modules/react&#45;dom</title>
<path fill="none" stroke="#000000" stroke-opacity="0.200000" d="M55.25,-107.47C67.02,-97.5 85.62,-81.74 99.14,-70.28"/>
<polygon fill="#000000" fill-opacity="0.200000" stroke="#000000" stroke-opacity="0.200000" points="100.22,-72.12 103.44,-66.64 97.5,-68.92 100.22,-72.12"/>
</g>
<!-- src/main.jsx&#45;&gt;src/App.jsx -->
<g id="edge2" class="edge">
<title>src/main.jsx&#45;&gt;src/App.jsx</title>
<path fill="none" stroke="#000000" stroke-width="2" stroke-opacity="0.200000" d="M70.4,-117C73.73,-117 77.17,-117 80.61,-117"/>
<polygon fill="#000000" fill-opacity="0.200000" stroke="#000000" stroke-width="2" stroke-opacity="0.200000" points="80.57,-119.1 86.57,-117 80.57,-114.9 80.57,-119.1"/>
</g>
<!-- src/main.jsx&#45;&gt;src/index.css -->
<g id="edge3" class="edge">
<title>src/main.jsx&#45;&gt;src/index.css</title>
<path fill="none" stroke="#000000" stroke-width="2" stroke-opacity="0.200000" d="M65.92,-126.74C69.94,-128.5 74.09,-130.31 78,-132 80.28,-132.98 82.64,-133.99 85.02,-135.01"/>
<polygon fill="#000000" fill-opacity="0.200000" stroke="#000000" stroke-width="2" stroke-opacity="0.200000" points="83.93,-136.83 90.28,-137.24 85.57,-132.96 83.93,-136.83"/>
</g>
</g>
</svg>
