<?xml version="1.0" encoding="UTF-8" standalone="no"?>
<!DOCTYPE svg PUBLIC "-//W3C//DTD SVG 1.1//EN"
 "http://www.w3.org/Graphics/SVG/1.1/DTD/svg11.dtd">
<!-- Generated by graphviz version 13.0.1 (20250615.1724)
 -->
<!-- Title: dependency&#45;cruiser output Pages: 1 -->
<svg width="696pt" height="943pt"
 viewBox="0.00 0.00 696.00 943.00" xmlns="http://www.w3.org/2000/svg" xmlns:xlink="http://www.w3.org/1999/xlink">
<g id="graph0" class="graph" transform="scale(1 1) rotate(0) translate(4 938.88)">
<title>dependency&#45;cruiser output</title>
<polygon fill="white" stroke="none" points="-4,4 -4,-938.88 692.12,-938.88 692.12,4 -4,4"/>
<g id="clust1" class="cluster">
<title>cluster_..</title>
<path fill="#ffffff" stroke="black" stroke-width="2" d="M420.75,-261.88C420.75,-261.88 527,-261.88 527,-261.88 533,-261.88 539,-267.88 539,-273.88 539,-273.88 539,-407.88 539,-407.88 539,-413.88 533,-419.88 527,-419.88 527,-419.88 420.75,-419.88 420.75,-419.88 414.75,-419.88 408.75,-413.88 408.75,-407.88 408.75,-407.88 408.75,-273.88 408.75,-273.88 408.75,-267.88 414.75,-261.88 420.75,-261.88"/>
<text xml:space="preserve" text-anchor="middle" x="473.88" y="-407.33" font-family="Helvetica,sans-Serif" font-weight="bold" font-size="9.00">..</text>
</g>
<g id="clust2" class="cluster">
<title>cluster_../auth&#45;todo</title>
<path fill="#ffffff" stroke="black" stroke-width="2" d="M428.75,-269.88C428.75,-269.88 519,-269.88 519,-269.88 525,-269.88 531,-275.88 531,-281.88 531,-281.88 531,-380.88 531,-380.88 531,-386.88 525,-392.88 519,-392.88 519,-392.88 428.75,-392.88 428.75,-392.88 422.75,-392.88 416.75,-386.88 416.75,-380.88 416.75,-380.88 416.75,-281.88 416.75,-281.88 416.75,-275.88 422.75,-269.88 428.75,-269.88"/>
<text xml:space="preserve" text-anchor="middle" x="473.88" y="-380.33" font-family="Helvetica,sans-Serif" font-weight="bold" font-size="9.00">auth&#45;todo</text>
</g>
<g id="clust3" class="cluster">
<title>cluster_../auth&#45;todo/src</title>
<path fill="#ffffff" stroke="black" stroke-width="2" d="M436.75,-277.88C436.75,-277.88 511,-277.88 511,-277.88 517,-277.88 523,-283.88 523,-289.88 523,-289.88 523,-353.88 523,-353.88 523,-359.88 517,-365.88 511,-365.88 511,-365.88 436.75,-365.88 436.75,-365.88 430.75,-365.88 424.75,-359.88 424.75,-353.88 424.75,-353.88 424.75,-289.88 424.75,-289.88 424.75,-283.88 430.75,-277.88 436.75,-277.88"/>
<text xml:space="preserve" text-anchor="middle" x="473.88" y="-353.33" font-family="Helvetica,sans-Serif" font-weight="bold" font-size="9.00">src</text>
</g>
<g id="clust4" class="cluster">
<title>cluster_../auth&#45;todo/src/hooks</title>
<path fill="#ffffff" stroke="black" stroke-width="2" d="M444.75,-285.88C444.75,-285.88 503,-285.88 503,-285.88 509,-285.88 515,-291.88 515,-297.88 515,-297.88 515,-326.88 515,-326.88 515,-332.88 509,-338.88 503,-338.88 503,-338.88 444.75,-338.88 444.75,-338.88 438.75,-338.88 432.75,-332.88 432.75,-326.88 432.75,-326.88 432.75,-297.88 432.75,-297.88 432.75,-291.88 438.75,-285.88 444.75,-285.88"/>
<text xml:space="preserve" text-anchor="middle" x="473.88" y="-326.33" font-family="Helvetica,sans-Serif" font-weight="bold" font-size="9.00">hooks</text>
</g>
<g id="clust5" class="cluster">
<title>cluster_node_modules</title>
<path fill="#ffffff" stroke="black" stroke-width="2" d="M564.88,-167.88C564.88,-167.88 668.12,-167.88 668.12,-167.88 674.12,-167.88 680.12,-173.88 680.12,-179.88 680.12,-179.88 680.12,-332.88 680.12,-332.88 680.12,-338.88 674.12,-344.88 668.12,-344.88 668.12,-344.88 564.88,-344.88 564.88,-344.88 558.88,-344.88 552.88,-338.88 552.88,-332.88 552.88,-332.88 552.88,-179.88 552.88,-179.88 552.88,-173.88 558.88,-167.88 564.88,-167.88"/>
<text xml:space="preserve" text-anchor="middle" x="616.5" y="-332.33" font-family="Helvetica,sans-Serif" font-weight="bold" font-size="9.00">node_modules</text>
</g>
<g id="clust6" class="cluster">
<title>cluster_src</title>
<path fill="#ffffff" stroke="black" stroke-width="2" d="M20,-471.88C20,-471.88 532.88,-471.88 532.88,-471.88 538.88,-471.88 544.88,-477.88 544.88,-483.88 544.88,-483.88 544.88,-914.88 544.88,-914.88 544.88,-920.88 538.88,-926.88 532.88,-926.88 532.88,-926.88 20,-926.88 20,-926.88 14,-926.88 8,-920.88 8,-914.88 8,-914.88 8,-483.88 8,-483.88 8,-477.88 14,-471.88 20,-471.88"/>
<text xml:space="preserve" text-anchor="middle" x="276.44" y="-914.33" font-family="Helvetica,sans-Serif" font-weight="bold" font-size="9.00">src</text>
</g>
<g id="clust7" class="cluster">
<title>cluster_src/assets</title>
<path fill="#ffffff" stroke="black" stroke-width="2" d="M307.88,-689.88C307.88,-689.88 385.88,-689.88 385.88,-689.88 391.88,-689.88 397.88,-695.88 397.88,-701.88 397.88,-701.88 397.88,-887.88 397.88,-887.88 397.88,-893.88 391.88,-899.88 385.88,-899.88 385.88,-899.88 307.88,-899.88 307.88,-899.88 301.88,-899.88 295.88,-893.88 295.88,-887.88 295.88,-887.88 295.88,-701.88 295.88,-701.88 295.88,-695.88 301.88,-689.88 307.88,-689.88"/>
<text xml:space="preserve" text-anchor="middle" x="346.88" y="-887.33" font-family="Helvetica,sans-Serif" font-weight="bold" font-size="9.00">assets</text>
</g>
<g id="clust8" class="cluster">
<title>cluster_src/assets/constants</title>
<path fill="#ffffff" stroke="black" stroke-width="2" d="M322.62,-697.88C322.62,-697.88 371.12,-697.88 371.12,-697.88 377.12,-697.88 383.12,-703.88 383.12,-709.88 383.12,-709.88 383.12,-738.88 383.12,-738.88 383.12,-744.88 377.12,-750.88 371.12,-750.88 371.12,-750.88 322.62,-750.88 322.62,-750.88 316.62,-750.88 310.62,-744.88 310.62,-738.88 310.62,-738.88 310.62,-709.88 310.62,-709.88 310.62,-703.88 316.62,-697.88 322.62,-697.88"/>
<text xml:space="preserve" text-anchor="middle" x="346.88" y="-738.33" font-family="Helvetica,sans-Serif" font-weight="bold" font-size="9.00">constants</text>
</g>
<g id="clust9" class="cluster">
<title>cluster_src/assets/icons</title>
<path fill="#ffffff" stroke="black" stroke-width="2" d="M315.88,-758.88C315.88,-758.88 377.88,-758.88 377.88,-758.88 383.88,-758.88 389.88,-764.88 389.88,-770.88 389.88,-770.88 389.88,-799.88 389.88,-799.88 389.88,-805.88 383.88,-811.88 377.88,-811.88 377.88,-811.88 315.88,-811.88 315.88,-811.88 309.88,-811.88 303.88,-805.88 303.88,-799.88 303.88,-799.88 303.88,-770.88 303.88,-770.88 303.88,-764.88 309.88,-758.88 315.88,-758.88"/>
<text xml:space="preserve" text-anchor="middle" x="346.88" y="-799.33" font-family="Helvetica,sans-Serif" font-weight="bold" font-size="9.00">icons</text>
</g>
<g id="clust10" class="cluster">
<title>cluster_src/assets/styles</title>
<path fill="#ffffff" stroke="black" stroke-width="2" d="M322.25,-819.88C322.25,-819.88 371.5,-819.88 371.5,-819.88 377.5,-819.88 383.5,-825.88 383.5,-831.88 383.5,-831.88 383.5,-860.88 383.5,-860.88 383.5,-866.88 377.5,-872.88 371.5,-872.88 371.5,-872.88 322.25,-872.88 322.25,-872.88 316.25,-872.88 310.25,-866.88 310.25,-860.88 310.25,-860.88 310.25,-831.88 310.25,-831.88 310.25,-825.88 316.25,-819.88 322.25,-819.88"/>
<text xml:space="preserve" text-anchor="middle" x="346.88" y="-860.33" font-family="Helvetica,sans-Serif" font-weight="bold" font-size="9.00">styles</text>
</g>
<g id="clust11" class="cluster">
<title>cluster_src/components</title>
<path fill="#ffffff" stroke="black" stroke-width="2" d="M305,-559.88C305,-559.88 388.75,-559.88 388.75,-559.88 394.75,-559.88 400.75,-565.88 400.75,-571.88 400.75,-571.88 400.75,-631.88 400.75,-631.88 400.75,-637.88 394.75,-643.88 388.75,-643.88 388.75,-643.88 305,-643.88 305,-643.88 299,-643.88 293,-637.88 293,-631.88 293,-631.88 293,-571.88 293,-571.88 293,-565.88 299,-559.88 305,-559.88"/>
<text xml:space="preserve" text-anchor="middle" x="346.88" y="-631.33" font-family="Helvetica,sans-Serif" font-weight="bold" font-size="9.00">components</text>
</g>
<g id="clust12" class="cluster">
<title>cluster_src/css</title>
<path fill="#ffffff" stroke="black" stroke-width="2" d="M422.88,-501.88C422.88,-501.88 524.88,-501.88 524.88,-501.88 530.88,-501.88 536.88,-507.88 536.88,-513.88 536.88,-513.88 536.88,-731.88 536.88,-731.88 536.88,-737.88 530.88,-743.88 524.88,-743.88 524.88,-743.88 422.88,-743.88 422.88,-743.88 416.88,-743.88 410.88,-737.88 410.88,-731.88 410.88,-731.88 410.88,-513.88 410.88,-513.88 410.88,-507.88 416.88,-501.88 422.88,-501.88"/>
<text xml:space="preserve" text-anchor="middle" x="473.88" y="-731.33" font-family="Helvetica,sans-Serif" font-weight="bold" font-size="9.00">css</text>
</g>
<g id="clust13" class="cluster">
<title>cluster_src/css/components</title>
<path fill="#ffffff" stroke="black" stroke-width="2" d="M430.88,-601.88C430.88,-601.88 516.88,-601.88 516.88,-601.88 522.88,-601.88 528.88,-607.88 528.88,-613.88 528.88,-613.88 528.88,-704.88 528.88,-704.88 528.88,-710.88 522.88,-716.88 516.88,-716.88 516.88,-716.88 430.88,-716.88 430.88,-716.88 424.88,-716.88 418.88,-710.88 418.88,-704.88 418.88,-704.88 418.88,-613.88 418.88,-613.88 418.88,-607.88 424.88,-601.88 430.88,-601.88"/>
<text xml:space="preserve" text-anchor="middle" x="473.88" y="-704.33" font-family="Helvetica,sans-Serif" font-weight="bold" font-size="9.00">components</text>
</g>
<g id="clust14" class="cluster">
<title>cluster_src/css/pages</title>
<path fill="#ffffff" stroke="black" stroke-width="2" d="M450.38,-509.88C450.38,-509.88 497.38,-509.88 497.38,-509.88 503.38,-509.88 509.38,-515.88 509.38,-521.88 509.38,-521.88 509.38,-581.88 509.38,-581.88 509.38,-587.88 503.38,-593.88 497.38,-593.88 497.38,-593.88 450.38,-593.88 450.38,-593.88 444.38,-593.88 438.38,-587.88 438.38,-581.88 438.38,-581.88 438.38,-521.88 438.38,-521.88 438.38,-515.88 444.38,-509.88 450.38,-509.88"/>
<text xml:space="preserve" text-anchor="middle" x="473.88" y="-581.33" font-family="Helvetica,sans-Serif" font-weight="bold" font-size="9.00">pages</text>
</g>
<g id="clust15" class="cluster">
<title>cluster_src/hooks</title>
<path fill="#ffffff" stroke="black" stroke-width="2" d="M435.75,-751.88C435.75,-751.88 512,-751.88 512,-751.88 518,-751.88 524,-757.88 524,-763.88 524,-763.88 524,-885.88 524,-885.88 524,-891.88 518,-897.88 512,-897.88 512,-897.88 435.75,-897.88 435.75,-897.88 429.75,-897.88 423.75,-891.88 423.75,-885.88 423.75,-885.88 423.75,-763.88 423.75,-763.88 423.75,-757.88 429.75,-751.88 435.75,-751.88"/>
<text xml:space="preserve" text-anchor="middle" x="473.88" y="-885.33" font-family="Helvetica,sans-Serif" font-weight="bold" font-size="9.00">hooks</text>
</g>
<g id="clust16" class="cluster">
<title>cluster_src/pages</title>
<path fill="#ffffff" stroke="black" stroke-width="2" d="M189.25,-479.88C189.25,-479.88 273,-479.88 273,-479.88 279,-479.88 285,-485.88 285,-491.88 285,-491.88 285,-799.88 285,-799.88 285,-805.88 279,-811.88 273,-811.88 273,-811.88 189.25,-811.88 189.25,-811.88 183.25,-811.88 177.25,-805.88 177.25,-799.88 177.25,-799.88 177.25,-491.88 177.25,-491.88 177.25,-485.88 183.25,-479.88 189.25,-479.88"/>
<text xml:space="preserve" text-anchor="middle" x="231.12" y="-799.33" font-family="Helvetica,sans-Serif" font-weight="bold" font-size="9.00">pages</text>
</g>
<g id="clust17" class="cluster">
<title>cluster_src/routes</title>
<path fill="#ffffff" stroke="black" stroke-width="2" d="M90,-572.88C90,-572.88 157.25,-572.88 157.25,-572.88 163.25,-572.88 169.25,-578.88 169.25,-584.88 169.25,-584.88 169.25,-613.88 169.25,-613.88 169.25,-619.88 163.25,-625.88 157.25,-625.88 157.25,-625.88 90,-625.88 90,-625.88 84,-625.88 78,-619.88 78,-613.88 78,-613.88 78,-584.88 78,-584.88 78,-578.88 84,-572.88 90,-572.88"/>
<text xml:space="preserve" text-anchor="middle" x="123.62" y="-613.33" font-family="Helvetica,sans-Serif" font-weight="bold" font-size="9.00">routes</text>
</g>
<!-- ../auth&#45;todo/src/hooks/useSignin.js -->
<g id="node1" class="node">
<title>../auth&#45;todo/src/hooks/useSignin.js</title>
<g id="a_node1"><a xlink:href="../auth-todo/src/hooks/useSignin.js" xlink:title="useSignin.js">
<path fill="#ffffcc" stroke="black" d="M500.83,-312.13C500.83,-312.13 446.92,-312.13 446.92,-312.13 443.83,-312.13 440.75,-309.04 440.75,-305.96 440.75,-305.96 440.75,-299.79 440.75,-299.79 440.75,-296.71 443.83,-293.63 446.92,-293.63 446.92,-293.63 500.83,-293.63 500.83,-293.63 503.92,-293.63 507,-296.71 507,-299.79 507,-299.79 507,-305.96 507,-305.96 507,-309.04 503.92,-312.13 500.83,-312.13"/>
<text xml:space="preserve" text-anchor="start" x="448.75" y="-299.58" font-family="Helvetica,sans-Serif" font-size="9.00">useSignin.js</text>
</a>
</g>
</g>
<!-- node_modules/react -->
<g id="node2" class="node">
<title>node_modules/react</title>
<g id="a_node2"><a xlink:href="https://www.npmjs.com/package/react" xlink:title="react">
<polygon fill="#c40b0a" fill-opacity="0.101961" stroke="black" points="643.5,-318.13 591.56,-318.13 589.5,-316.07 589.5,-299.63 641.44,-299.63 643.5,-301.68 643.5,-318.13"/>
<polyline fill="none" stroke="black" points="641.44,-316.07 589.5,-316.07"/>
<polyline fill="none" stroke="black" points="641.44,-316.07 641.44,-299.63"/>
<polyline fill="none" stroke="black" points="641.44,-316.07 643.5,-318.13"/>
<text xml:space="preserve" text-anchor="start" x="606.38" y="-305.58" font-family="Helvetica,sans-Serif" font-size="9.00" fill="#c40b0a">react</text>
</a>
</g>
</g>
<!-- ../auth&#45;todo/src/hooks/useSignin.js&#45;&gt;node_modules/react -->
<g id="edge1" class="edge">
<title>../auth&#45;todo/src/hooks/useSignin.js&#45;&gt;node_modules/react</title>
<path fill="none" stroke="#000000" stroke-opacity="0.200000" d="M507.49,-304.27C529.8,-305.22 559.29,-306.48 581.82,-307.44"/>
<polygon fill="#000000" fill-opacity="0.200000" stroke="#000000" stroke-opacity="0.200000" points="581.58,-309.53 587.66,-307.69 581.76,-305.34 581.58,-309.53"/>
</g>
<!-- node_modules/react&#45;toastify -->
<g id="node3" class="node">
<title>node_modules/react&#45;toastify</title>
<g id="a_node3"><a xlink:href="https://www.npmjs.com/package/react-toastify" xlink:title="react&#45;toastify">
<polygon fill="#c40b0a" fill-opacity="0.101961" stroke="black" points="650.38,-256.13 584.68,-256.13 582.62,-254.07 582.62,-237.63 648.32,-237.63 650.38,-239.68 650.38,-256.13"/>
<polyline fill="none" stroke="black" points="648.32,-254.07 582.62,-254.07"/>
<polyline fill="none" stroke="black" points="648.32,-254.07 648.32,-237.63"/>
<polyline fill="none" stroke="black" points="648.32,-254.07 650.38,-256.13"/>
<text xml:space="preserve" text-anchor="start" x="590.62" y="-243.58" font-family="Helvetica,sans-Serif" font-size="9.00" fill="#c40b0a">react&#45;toastify</text>
</a>
</g>
</g>
<!-- ../auth&#45;todo/src/hooks/useSignin.js&#45;&gt;node_modules/react&#45;toastify -->
<g id="edge2" class="edge">
<title>../auth&#45;todo/src/hooks/useSignin.js&#45;&gt;node_modules/react&#45;toastify</title>
<path fill="none" stroke="#000000" stroke-opacity="0.200000" d="M491.12,-293.18C506.57,-284.3 530.67,-271.29 552.88,-262.88 560.03,-260.17 567.81,-257.77 575.38,-255.71"/>
<polygon fill="#000000" fill-opacity="0.200000" stroke="#000000" stroke-opacity="0.200000" points="575.51,-257.84 580.78,-254.29 574.44,-253.78 575.51,-257.84"/>
</g>
<!-- node_modules/react&#45;dom -->
<g id="node4" class="node">
<title>node_modules/react&#45;dom</title>
<g id="a_node4"><a xlink:href="https://www.npmjs.com/package/react-dom" xlink:title="react&#45;dom">
<polygon fill="#c40b0a" fill-opacity="0.101961" stroke="black" points="645.12,-194.13 589.93,-194.13 587.88,-192.07 587.88,-175.63 643.07,-175.63 645.12,-177.68 645.12,-194.13"/>
<polyline fill="none" stroke="black" points="643.07,-192.07 587.88,-192.07"/>
<polyline fill="none" stroke="black" points="643.07,-192.07 643.07,-175.63"/>
<polyline fill="none" stroke="black" points="643.07,-192.07 645.12,-194.13"/>
<text xml:space="preserve" text-anchor="start" x="595.88" y="-181.58" font-family="Helvetica,sans-Serif" font-size="9.00" fill="#c40b0a">react&#45;dom</text>
</a>
</g>
</g>
<!-- node_modules/react&#45;google&#45;recaptcha -->
<g id="node5" class="node">
<title>node_modules/react&#45;google&#45;recaptcha</title>
<g id="a_node5"><a xlink:href="https://www.npmjs.com/package/react-google-recaptcha" xlink:title="react&#45;google&#45;recaptcha">
<polygon fill="#c40b0a" fill-opacity="0.101961" stroke="black" points="672.12,-287.13 562.93,-287.13 560.88,-285.07 560.88,-268.63 670.07,-268.63 672.12,-270.68 672.12,-287.13"/>
<polyline fill="none" stroke="black" points="670.07,-285.07 560.88,-285.07"/>
<polyline fill="none" stroke="black" points="670.07,-285.07 670.07,-268.63"/>
<polyline fill="none" stroke="black" points="670.07,-285.07 672.12,-287.13"/>
<text xml:space="preserve" text-anchor="start" x="568.88" y="-274.58" font-family="Helvetica,sans-Serif" font-size="9.00" fill="#c40b0a">react&#45;google&#45;recaptcha</text>
</a>
</g>
</g>
<!-- node_modules/react&#45;router&#45;dom -->
<g id="node6" class="node">
<title>node_modules/react&#45;router&#45;dom</title>
<g id="a_node6"><a xlink:href="https://www.npmjs.com/package/react-router-dom" xlink:title="react&#45;router&#45;dom">
<polygon fill="#c40b0a" fill-opacity="0.101961" stroke="black" points="658.62,-225.13 576.43,-225.13 574.38,-223.07 574.38,-206.63 656.57,-206.63 658.62,-208.68 658.62,-225.13"/>
<polyline fill="none" stroke="black" points="656.57,-223.07 574.38,-223.07"/>
<polyline fill="none" stroke="black" points="656.57,-223.07 656.57,-206.63"/>
<polyline fill="none" stroke="black" points="656.57,-223.07 658.62,-225.13"/>
<text xml:space="preserve" text-anchor="start" x="582.38" y="-212.58" font-family="Helvetica,sans-Serif" font-size="9.00" fill="#c40b0a">react&#45;router&#45;dom</text>
</a>
</g>
</g>
<!-- src/assets/constants/static.json -->
<g id="node7" class="node">
<title>src/assets/constants/static.json</title>
<g id="a_node7"><a xlink:href="src/assets/constants/static.json" xlink:title="static.json">
<path fill="#ffee44" stroke="black" d="M368.96,-724.13C368.96,-724.13 324.79,-724.13 324.79,-724.13 321.71,-724.13 318.62,-721.04 318.62,-717.96 318.62,-717.96 318.62,-711.79 318.62,-711.79 318.62,-708.71 321.71,-705.63 324.79,-705.63 324.79,-705.63 368.96,-705.63 368.96,-705.63 372.04,-705.63 375.12,-708.71 375.12,-711.79 375.12,-711.79 375.12,-717.96 375.12,-717.96 375.12,-721.04 372.04,-724.13 368.96,-724.13"/>
<text xml:space="preserve" text-anchor="start" x="326.62" y="-711.58" font-family="Helvetica,sans-Serif" font-size="9.00">static.json</text>
</a>
</g>
</g>
<!-- src/assets/icons/SVGIcons.jsx -->
<g id="node8" class="node">
<title>src/assets/icons/SVGIcons.jsx</title>
<g id="a_node8"><a xlink:href="src/assets/icons/SVGIcons.jsx" xlink:title="SVGIcons.jsx">
<path fill="#ffff77" stroke="black" d="M375.71,-785.13C375.71,-785.13 318.04,-785.13 318.04,-785.13 314.96,-785.13 311.88,-782.04 311.88,-778.96 311.88,-778.96 311.88,-772.79 311.88,-772.79 311.88,-769.71 314.96,-766.63 318.04,-766.63 318.04,-766.63 375.71,-766.63 375.71,-766.63 378.79,-766.63 381.88,-769.71 381.88,-772.79 381.88,-772.79 381.88,-778.96 381.88,-778.96 381.88,-782.04 378.79,-785.13 375.71,-785.13"/>
<text xml:space="preserve" text-anchor="start" x="319.88" y="-772.58" font-family="Helvetica,sans-Serif" font-size="9.00">SVGIcons.jsx</text>
</a>
</g>
</g>
<!-- src/assets/styles/theme.css -->
<g id="node9" class="node">
<title>src/assets/styles/theme.css</title>
<g id="a_node9"><a xlink:href="src/assets/styles/theme.css" xlink:title="theme.css">
<path fill="#ffffcc" stroke="black" d="M369.33,-846.13C369.33,-846.13 324.42,-846.13 324.42,-846.13 321.33,-846.13 318.25,-843.04 318.25,-839.96 318.25,-839.96 318.25,-833.79 318.25,-833.79 318.25,-830.71 321.33,-827.63 324.42,-827.63 324.42,-827.63 369.33,-827.63 369.33,-827.63 372.42,-827.63 375.5,-830.71 375.5,-833.79 375.5,-833.79 375.5,-839.96 375.5,-839.96 375.5,-843.04 372.42,-846.13 369.33,-846.13"/>
<text xml:space="preserve" text-anchor="start" x="326.25" y="-833.58" font-family="Helvetica,sans-Serif" font-size="9.00">theme.css</text>
</a>
</g>
</g>
<!-- src/components/ReCaptchaBox.jsx -->
<g id="node10" class="node">
<title>src/components/ReCaptchaBox.jsx</title>
<g id="a_node10"><a xlink:href="src/components/ReCaptchaBox.jsx" xlink:title="ReCaptchaBox.jsx">
<path fill="#ffff77" stroke="black" d="M386.58,-586.13C386.58,-586.13 307.17,-586.13 307.17,-586.13 304.08,-586.13 301,-583.04 301,-579.96 301,-579.96 301,-573.79 301,-573.79 301,-570.71 304.08,-567.63 307.17,-567.63 307.17,-567.63 386.58,-567.63 386.58,-567.63 389.67,-567.63 392.75,-570.71 392.75,-573.79 392.75,-573.79 392.75,-579.96 392.75,-579.96 392.75,-583.04 389.67,-586.13 386.58,-586.13"/>
<text xml:space="preserve" text-anchor="start" x="309" y="-573.58" font-family="Helvetica,sans-Serif" font-size="9.00">ReCaptchaBox.jsx</text>
</a>
</g>
</g>
<!-- src/components/ReCaptchaBox.jsx&#45;&gt;node_modules/react&#45;google&#45;recaptcha -->
<g id="edge5" class="edge">
<title>src/components/ReCaptchaBox.jsx&#45;&gt;node_modules/react&#45;google&#45;recaptcha</title>
<path fill="none" stroke="#000000" stroke-opacity="0.200000" d="M353.34,-567.59C362.71,-552.49 383.32,-522.71 408.75,-506.88 461.88,-473.81 505.59,-519.59 544.88,-470.88 557.23,-455.55 540.45,-309.15 552.88,-293.88 553.56,-293.03 554.28,-292.23 555.04,-291.47"/>
<polygon fill="#000000" fill-opacity="0.200000" stroke="#000000" stroke-opacity="0.200000" points="556.03,-293.38 559.33,-287.94 553.36,-290.13 556.03,-293.38"/>
</g>
<!-- src/css/components/ReCaptchaBox.css -->
<g id="node11" class="node">
<title>src/css/components/ReCaptchaBox.css</title>
<g id="a_node11"><a xlink:href="src/css/components/ReCaptchaBox.css" xlink:title="ReCaptchaBox.css">
<path fill="#ffffcc" stroke="black" d="M514.71,-659.13C514.71,-659.13 433.04,-659.13 433.04,-659.13 429.96,-659.13 426.88,-656.04 426.88,-652.96 426.88,-652.96 426.88,-646.79 426.88,-646.79 426.88,-643.71 429.96,-640.63 433.04,-640.63 433.04,-640.63 514.71,-640.63 514.71,-640.63 517.79,-640.63 520.88,-643.71 520.88,-646.79 520.88,-646.79 520.88,-652.96 520.88,-652.96 520.88,-656.04 517.79,-659.13 514.71,-659.13"/>
<text xml:space="preserve" text-anchor="start" x="434.88" y="-646.58" font-family="Helvetica,sans-Serif" font-size="9.00">ReCaptchaBox.css</text>
</a>
</g>
</g>
<!-- src/components/ReCaptchaBox.jsx&#45;&gt;src/css/components/ReCaptchaBox.css -->
<g id="edge3" class="edge">
<title>src/components/ReCaptchaBox.jsx&#45;&gt;src/css/components/ReCaptchaBox.css</title>
<path fill="none" stroke="#000000" stroke-width="2" stroke-opacity="0.200000" d="M392.78,-586.34C395.73,-588.16 398.44,-590.32 400.75,-592.88 413.2,-606.65 395.97,-620.41 408.75,-633.88 411.66,-636.94 415.06,-639.45 418.74,-641.51"/>
<polygon fill="#000000" fill-opacity="0.200000" stroke="#000000" stroke-width="2" stroke-opacity="0.200000" points="417.57,-643.28 423.9,-643.87 419.31,-639.46 417.57,-643.28"/>
</g>
<!-- src/hooks/useTheme.js -->
<g id="node12" class="node">
<title>src/hooks/useTheme.js</title>
<g id="a_node12"><a xlink:href="src/hooks/useTheme.js" xlink:title="useTheme.js">
<path fill="#ffffcc" stroke="black" d="M501.96,-809.13C501.96,-809.13 445.79,-809.13 445.79,-809.13 442.71,-809.13 439.62,-806.04 439.62,-802.96 439.62,-802.96 439.62,-796.79 439.62,-796.79 439.62,-793.71 442.71,-790.63 445.79,-790.63 445.79,-790.63 501.96,-790.63 501.96,-790.63 505.04,-790.63 508.12,-793.71 508.12,-796.79 508.12,-796.79 508.12,-802.96 508.12,-802.96 508.12,-806.04 505.04,-809.13 501.96,-809.13"/>
<text xml:space="preserve" text-anchor="start" x="447.62" y="-796.58" font-family="Helvetica,sans-Serif" font-size="9.00">useTheme.js</text>
</a>
</g>
</g>
<!-- src/components/ReCaptchaBox.jsx&#45;&gt;src/hooks/useTheme.js -->
<g id="edge4" class="edge">
<title>src/components/ReCaptchaBox.jsx&#45;&gt;src/hooks/useTheme.js</title>
<path fill="none" stroke="#000000" stroke-width="2" stroke-opacity="0.200000" d="M393.22,-585.97C396.07,-587.87 398.63,-590.15 400.75,-592.88 413.76,-609.67 395.33,-767.42 408.75,-783.88 414.24,-790.61 422.09,-794.76 430.42,-797.27"/>
<polygon fill="#000000" fill-opacity="0.200000" stroke="#000000" stroke-width="2" stroke-opacity="0.200000" points="429.94,-799.31 436.26,-798.63 430.9,-795.22 429.94,-799.31"/>
</g>
<!-- src/hooks/useTheme.js&#45;&gt;node_modules/react -->
<g id="edge13" class="edge">
<title>src/hooks/useTheme.js&#45;&gt;node_modules/react</title>
<path fill="none" stroke="#000000" stroke-opacity="0.200000" d="M508.48,-799.97C521.58,-798.23 535.64,-793.85 544.88,-783.88 608.4,-715.26 614.82,-402.17 615.44,-325.74"/>
<polygon fill="#000000" fill-opacity="0.200000" stroke="#000000" stroke-opacity="0.200000" points="617.54,-325.88 615.48,-319.87 613.34,-325.85 617.54,-325.88"/>
</g>
<!-- src/components/ToggleTheme.jsx -->
<g id="node13" class="node">
<title>src/components/ToggleTheme.jsx</title>
<g id="a_node13"><a xlink:href="src/components/ToggleTheme.jsx" xlink:title="ToggleTheme.jsx">
<path fill="#ffff77" stroke="black" d="M383.58,-617.13C383.58,-617.13 310.17,-617.13 310.17,-617.13 307.08,-617.13 304,-614.04 304,-610.96 304,-610.96 304,-604.79 304,-604.79 304,-601.71 307.08,-598.63 310.17,-598.63 310.17,-598.63 383.58,-598.63 383.58,-598.63 386.67,-598.63 389.75,-601.71 389.75,-604.79 389.75,-604.79 389.75,-610.96 389.75,-610.96 389.75,-614.04 386.67,-617.13 383.58,-617.13"/>
<text xml:space="preserve" text-anchor="start" x="312" y="-604.58" font-family="Helvetica,sans-Serif" font-size="9.00">ToggleTheme.jsx</text>
</a>
</g>
</g>
<!-- src/components/ToggleTheme.jsx&#45;&gt;src/hooks/useTheme.js -->
<g id="edge7" class="edge">
<title>src/components/ToggleTheme.jsx&#45;&gt;src/hooks/useTheme.js</title>
<path fill="none" stroke="#000000" stroke-width="2" stroke-opacity="0.200000" d="M367.51,-617.56C379.34,-624.52 393.49,-635.11 400.75,-648.88 414.77,-675.46 389.56,-760.75 408.75,-783.88 414.3,-790.56 422.17,-794.69 430.51,-797.19"/>
<polygon fill="#000000" fill-opacity="0.200000" stroke="#000000" stroke-width="2" stroke-opacity="0.200000" points="430.02,-799.24 436.34,-798.56 430.98,-795.15 430.02,-799.24"/>
</g>
<!-- src/css/components/ToggleTheme.css -->
<g id="node14" class="node">
<title>src/css/components/ToggleTheme.css</title>
<g id="a_node14"><a xlink:href="src/css/components/ToggleTheme.css" xlink:title="ToggleTheme.css">
<path fill="#ffffcc" stroke="black" d="M511.71,-690.13C511.71,-690.13 436.04,-690.13 436.04,-690.13 432.96,-690.13 429.88,-687.04 429.88,-683.96 429.88,-683.96 429.88,-677.79 429.88,-677.79 429.88,-674.71 432.96,-671.63 436.04,-671.63 436.04,-671.63 511.71,-671.63 511.71,-671.63 514.79,-671.63 517.88,-674.71 517.88,-677.79 517.88,-677.79 517.88,-683.96 517.88,-683.96 517.88,-687.04 514.79,-690.13 511.71,-690.13"/>
<text xml:space="preserve" text-anchor="start" x="437.88" y="-677.58" font-family="Helvetica,sans-Serif" font-size="9.00">ToggleTheme.css</text>
</a>
</g>
</g>
<!-- src/components/ToggleTheme.jsx&#45;&gt;src/css/components/ToggleTheme.css -->
<g id="edge6" class="edge">
<title>src/components/ToggleTheme.jsx&#45;&gt;src/css/components/ToggleTheme.css</title>
<path fill="none" stroke="#000000" stroke-width="2" stroke-opacity="0.200000" d="M363.77,-617.44C375.16,-624.91 390.28,-636.13 400.75,-648.88 405.8,-655.02 402.55,-659.9 408.75,-664.88 412.5,-667.88 416.74,-670.33 421.2,-672.33"/>
<polygon fill="#000000" fill-opacity="0.200000" stroke="#000000" stroke-width="2" stroke-opacity="0.200000" points="420.25,-674.21 426.61,-674.38 421.74,-670.29 420.25,-674.21"/>
</g>
<!-- src/css/components/Input.jsx -->
<g id="node15" class="node">
<title>src/css/components/Input.jsx</title>
<g id="a_node15"><a xlink:href="src/css/components/Input.jsx" xlink:title="Input.jsx">
<path fill="#ffff77" stroke="black" d="M494.71,-628.13C494.71,-628.13 453.04,-628.13 453.04,-628.13 449.96,-628.13 446.88,-625.04 446.88,-621.96 446.88,-621.96 446.88,-615.79 446.88,-615.79 446.88,-612.71 449.96,-609.63 453.04,-609.63 453.04,-609.63 494.71,-609.63 494.71,-609.63 497.79,-609.63 500.88,-612.71 500.88,-615.79 500.88,-615.79 500.88,-621.96 500.88,-621.96 500.88,-625.04 497.79,-628.13 494.71,-628.13"/>
<text xml:space="preserve" text-anchor="start" x="457" y="-615.58" font-family="Helvetica,sans-Serif" font-size="9.00">Input.jsx</text>
</a>
</g>
</g>
<!-- src/css/pages/App.css -->
<g id="node16" class="node">
<title>src/css/pages/App.css</title>
<g id="a_node16"><a xlink:href="src/css/pages/App.css" xlink:title="App.css">
<path fill="#ffffcc" stroke="black" d="M494.71,-536.13C494.71,-536.13 453.04,-536.13 453.04,-536.13 449.96,-536.13 446.88,-533.04 446.88,-529.96 446.88,-529.96 446.88,-523.79 446.88,-523.79 446.88,-520.71 449.96,-517.63 453.04,-517.63 453.04,-517.63 494.71,-517.63 494.71,-517.63 497.79,-517.63 500.88,-520.71 500.88,-523.79 500.88,-523.79 500.88,-529.96 500.88,-529.96 500.88,-533.04 497.79,-536.13 494.71,-536.13"/>
<text xml:space="preserve" text-anchor="start" x="457.75" y="-523.58" font-family="Helvetica,sans-Serif" font-size="9.00">App.css</text>
</a>
</g>
</g>
<!-- src/css/pages/Login.css -->
<g id="node17" class="node">
<title>src/css/pages/Login.css</title>
<g id="a_node17"><a xlink:href="src/css/pages/Login.css" xlink:title="Login.css">
<path fill="#ffffcc" stroke="black" d="M495.21,-567.13C495.21,-567.13 452.54,-567.13 452.54,-567.13 449.46,-567.13 446.38,-564.04 446.38,-560.96 446.38,-560.96 446.38,-554.79 446.38,-554.79 446.38,-551.71 449.46,-548.63 452.54,-548.63 452.54,-548.63 495.21,-548.63 495.21,-548.63 498.29,-548.63 501.38,-551.71 501.38,-554.79 501.38,-554.79 501.38,-560.96 501.38,-560.96 501.38,-564.04 498.29,-567.13 495.21,-567.13"/>
<text xml:space="preserve" text-anchor="start" x="454.38" y="-554.58" font-family="Helvetica,sans-Serif" font-size="9.00">Login.css</text>
</a>
</g>
</g>
<!-- src/hooks/useLogin.js -->
<g id="node18" class="node">
<title>src/hooks/useLogin.js</title>
<g id="a_node18"><a xlink:href="src/hooks/useLogin.js" xlink:title="useLogin.js">
<path fill="#ffffcc" stroke="black" d="M499.33,-778.13C499.33,-778.13 448.42,-778.13 448.42,-778.13 445.33,-778.13 442.25,-775.04 442.25,-771.96 442.25,-771.96 442.25,-765.79 442.25,-765.79 442.25,-762.71 445.33,-759.63 448.42,-759.63 448.42,-759.63 499.33,-759.63 499.33,-759.63 502.42,-759.63 505.5,-762.71 505.5,-765.79 505.5,-765.79 505.5,-771.96 505.5,-771.96 505.5,-775.04 502.42,-778.13 499.33,-778.13"/>
<text xml:space="preserve" text-anchor="start" x="450.25" y="-765.58" font-family="Helvetica,sans-Serif" font-size="9.00">useLogin.js</text>
</a>
</g>
</g>
<!-- src/hooks/useLogin.js&#45;&gt;node_modules/react -->
<g id="edge8" class="edge">
<title>src/hooks/useLogin.js&#45;&gt;node_modules/react</title>
<path fill="none" stroke="#000000" stroke-opacity="0.200000" d="M497.11,-759.14C513,-750.98 533.51,-737.79 544.88,-719.88 587.72,-652.31 609.23,-395.07 614.3,-326.02"/>
<polygon fill="#000000" fill-opacity="0.200000" stroke="#000000" stroke-opacity="0.200000" points="616.4,-326.2 614.73,-320.07 612.21,-325.9 616.4,-326.2"/>
</g>
<!-- src/hooks/useLogin.js&#45;&gt;node_modules/react&#45;toastify -->
<g id="edge9" class="edge">
<title>src/hooks/useLogin.js&#45;&gt;node_modules/react&#45;toastify</title>
<path fill="none" stroke="#000000" stroke-opacity="0.200000" d="M498.62,-759.28C514.82,-751.33 535.05,-738.35 544.88,-719.88 556.8,-697.46 537.12,-282.8 552.88,-262.88 558.37,-255.93 566.42,-251.75 574.94,-249.28"/>
<polygon fill="#000000" fill-opacity="0.200000" stroke="#000000" stroke-opacity="0.200000" points="575.32,-251.35 580.68,-247.94 574.36,-247.26 575.32,-251.35"/>
</g>
<!-- src/hooks/useRecaptcha.js -->
<g id="node19" class="node">
<title>src/hooks/useRecaptcha.js</title>
<g id="a_node19"><a xlink:href="src/hooks/useRecaptcha.js" xlink:title="useRecaptcha.js">
<path fill="#ffffcc" stroke="black" d="M509.83,-871.13C509.83,-871.13 437.92,-871.13 437.92,-871.13 434.83,-871.13 431.75,-868.04 431.75,-864.96 431.75,-864.96 431.75,-858.79 431.75,-858.79 431.75,-855.71 434.83,-852.63 437.92,-852.63 437.92,-852.63 509.83,-852.63 509.83,-852.63 512.92,-852.63 516,-855.71 516,-858.79 516,-858.79 516,-864.96 516,-864.96 516,-868.04 512.92,-871.13 509.83,-871.13"/>
<text xml:space="preserve" text-anchor="start" x="439.75" y="-858.58" font-family="Helvetica,sans-Serif" font-size="9.00">useRecaptcha.js</text>
</a>
</g>
</g>
<!-- src/hooks/useRecaptcha.js&#45;&gt;node_modules/react -->
<g id="edge10" class="edge">
<title>src/hooks/useRecaptcha.js&#45;&gt;node_modules/react</title>
<path fill="none" stroke="#000000" stroke-opacity="0.200000" d="M516.21,-860.73C526.91,-858.42 537.49,-853.99 544.88,-845.88 616.47,-767.22 616.68,-408.21 615.76,-325.78"/>
<polygon fill="#000000" fill-opacity="0.200000" stroke="#000000" stroke-opacity="0.200000" points="617.86,-325.78 615.69,-319.8 613.66,-325.83 617.86,-325.78"/>
</g>
<!-- src/hooks/useSignup.js -->
<g id="node20" class="node">
<title>src/hooks/useSignup.js</title>
<g id="a_node20"><a xlink:href="src/hooks/useSignup.js" xlink:title="useSignup.js">
<path fill="#ffffcc" stroke="black" d="M502.33,-840.13C502.33,-840.13 445.42,-840.13 445.42,-840.13 442.33,-840.13 439.25,-837.04 439.25,-833.96 439.25,-833.96 439.25,-827.79 439.25,-827.79 439.25,-824.71 442.33,-821.63 445.42,-821.63 445.42,-821.63 502.33,-821.63 502.33,-821.63 505.42,-821.63 508.5,-824.71 508.5,-827.79 508.5,-827.79 508.5,-833.96 508.5,-833.96 508.5,-837.04 505.42,-840.13 502.33,-840.13"/>
<text xml:space="preserve" text-anchor="start" x="447.25" y="-827.58" font-family="Helvetica,sans-Serif" font-size="9.00">useSignup.js</text>
</a>
</g>
</g>
<!-- src/hooks/useSignup.js&#45;&gt;node_modules/react -->
<g id="edge11" class="edge">
<title>src/hooks/useSignup.js&#45;&gt;node_modules/react</title>
<path fill="none" stroke="#000000" stroke-opacity="0.200000" d="M508.88,-830.97C521.89,-829.2 535.77,-824.8 544.88,-814.88 612.41,-741.26 615.78,-405.41 615.61,-325.83"/>
<polygon fill="#000000" fill-opacity="0.200000" stroke="#000000" stroke-opacity="0.200000" points="617.71,-326.06 615.59,-320.07 613.51,-326.07 617.71,-326.06"/>
</g>
<!-- src/hooks/useSignup.js&#45;&gt;node_modules/react&#45;toastify -->
<g id="edge12" class="edge">
<title>src/hooks/useSignup.js&#45;&gt;node_modules/react&#45;toastify</title>
<path fill="none" stroke="#000000" stroke-opacity="0.200000" d="M508.79,-831.6C522.11,-829.99 536.25,-825.54 544.88,-814.88 564.17,-791.04 533.89,-286.96 552.88,-262.88 558.36,-255.92 566.41,-251.74 574.93,-249.27"/>
<polygon fill="#000000" fill-opacity="0.200000" stroke="#000000" stroke-opacity="0.200000" points="575.31,-251.34 580.67,-247.93 574.35,-247.25 575.31,-251.34"/>
</g>
<!-- src/index.css -->
<g id="node21" class="node">
<title>src/index.css</title>
<g id="a_node21"><a xlink:href="src/index.css" xlink:title="index.css">
<path fill="#ffffcc" stroke="black" d="M144.58,-852.13C144.58,-852.13 102.67,-852.13 102.67,-852.13 99.58,-852.13 96.5,-849.04 96.5,-845.96 96.5,-845.96 96.5,-839.79 96.5,-839.79 96.5,-836.71 99.58,-833.63 102.67,-833.63 102.67,-833.63 144.58,-833.63 144.58,-833.63 147.67,-833.63 150.75,-836.71 150.75,-839.79 150.75,-839.79 150.75,-845.96 150.75,-845.96 150.75,-849.04 147.67,-852.13 144.58,-852.13"/>
<text xml:space="preserve" text-anchor="start" x="104.5" y="-839.58" font-family="Helvetica,sans-Serif" font-size="9.00">index.css</text>
</a>
</g>
</g>
<!-- src/main.jsx -->
<g id="node22" class="node">
<title>src/main.jsx</title>
<g id="a_node22"><a xlink:href="src/main.jsx" xlink:title="main.jsx">
<path fill="#ffff77" stroke="black" d="M63.83,-498.13C63.83,-498.13 22.17,-498.13 22.17,-498.13 19.08,-498.13 16,-495.04 16,-491.96 16,-491.96 16,-485.79 16,-485.79 16,-482.71 19.08,-479.63 22.17,-479.63 22.17,-479.63 63.83,-479.63 63.83,-479.63 66.92,-479.63 70,-482.71 70,-485.79 70,-485.79 70,-491.96 70,-491.96 70,-495.04 66.92,-498.13 63.83,-498.13"/>
<text xml:space="preserve" text-anchor="start" x="26.12" y="-485.58" font-family="Helvetica,sans-Serif" font-size="9.00">main.jsx</text>
</a>
</g>
</g>
<!-- src/main.jsx&#45;&gt;node_modules/react -->
<g id="edge17" class="edge">
<title>src/main.jsx&#45;&gt;node_modules/react</title>
<path fill="none" stroke="#000000" stroke-opacity="0.200000" d="M45.67,-479.34C54.65,-431.6 101.53,-220.88 230.12,-220.88 230.12,-220.88 230.12,-220.88 347.88,-220.88 439.66,-220.88 469.14,-231.01 544.88,-282.88 549.57,-286.09 548.09,-289.79 552.88,-292.88 561.6,-298.51 572.2,-302.16 582.18,-304.53"/>
<polygon fill="#000000" fill-opacity="0.200000" stroke="#000000" stroke-opacity="0.200000" points="581.52,-306.53 587.82,-305.72 582.39,-302.42 581.52,-306.53"/>
</g>
<!-- src/main.jsx&#45;&gt;node_modules/react&#45;toastify -->
<g id="edge20" class="edge">
<title>src/main.jsx&#45;&gt;node_modules/react&#45;toastify</title>
<path fill="none" stroke="#000000" stroke-opacity="0.200000" d="M43.85,-479.13C43.4,-437.07 43.87,-271.61 78,-235.88 221.51,-85.63 372.18,-96.35 544.88,-211.88 552.49,-216.97 545.93,-224.9 552.88,-230.88 559.25,-236.37 567.27,-240.02 575.41,-242.43"/>
<polygon fill="#000000" fill-opacity="0.200000" stroke="#000000" stroke-opacity="0.200000" points="574.45,-244.35 580.79,-243.81 575.49,-240.29 574.45,-244.35"/>
</g>
<!-- src/main.jsx&#45;&gt;node_modules/react&#45;dom -->
<g id="edge18" class="edge">
<title>src/main.jsx&#45;&gt;node_modules/react&#45;dom</title>
<path fill="none" stroke="#000000" stroke-opacity="0.200000" d="M44.07,-479.27C44.61,-417.84 48.88,-81.7 78,-47.88 123.26,4.7 160.75,-12.88 230.12,-12.88 230.12,-12.88 230.12,-12.88 347.88,-12.88 435.65,-12.88 472.96,23.46 544.88,-26.88 592.96,-60.53 608.78,-134.82 613.58,-168.14"/>
<polygon fill="#000000" fill-opacity="0.200000" stroke="#000000" stroke-opacity="0.200000" points="611.46,-168.15 614.34,-173.82 615.63,-167.59 611.46,-168.15"/>
</g>
<!-- src/main.jsx&#45;&gt;node_modules/react&#45;router&#45;dom -->
<g id="edge19" class="edge">
<title>src/main.jsx&#45;&gt;node_modules/react&#45;router&#45;dom</title>
<path fill="none" stroke="#000000" stroke-opacity="0.200000" d="M44,-479.34C44.13,-431.32 46.5,-216.16 78,-158.88 119.5,-83.42 144.01,-38.88 230.12,-38.88 230.12,-38.88 230.12,-38.88 347.88,-38.88 436.51,-38.88 485.24,-4.31 544.88,-69.88 564.35,-91.29 534.43,-177.57 552.88,-199.88 556.65,-204.44 561.52,-207.8 566.89,-210.26"/>
<polygon fill="#000000" fill-opacity="0.200000" stroke="#000000" stroke-opacity="0.200000" points="566.13,-212.22 572.48,-212.38 567.62,-208.29 566.13,-212.22"/>
</g>
<!-- src/main.jsx&#45;&gt;src/assets/styles/theme.css -->
<g id="edge14" class="edge">
<title>src/main.jsx&#45;&gt;src/assets/styles/theme.css</title>
<path fill="none" stroke="#000000" stroke-width="2" stroke-opacity="0.200000" d="M44.41,-498.62C46.92,-544.1 64.11,-736.61 177.25,-814.88 216.2,-841.82 272.54,-843.64 309.19,-841.24"/>
<polygon fill="#000000" fill-opacity="0.200000" stroke="#000000" stroke-width="2" stroke-opacity="0.200000" points="309.22,-843.34 315.04,-840.78 308.9,-839.15 309.22,-843.34"/>
</g>
<!-- src/main.jsx&#45;&gt;src/index.css -->
<g id="edge15" class="edge">
<title>src/main.jsx&#45;&gt;src/index.css</title>
<path fill="none" stroke="#000000" stroke-width="2" stroke-opacity="0.200000" d="M44.38,-498.41C46.54,-550.35 57.84,-798.04 78,-824.88 80.75,-828.54 84.37,-831.46 88.36,-833.79"/>
<polygon fill="#000000" fill-opacity="0.200000" stroke="#000000" stroke-width="2" stroke-opacity="0.200000" points="87.31,-835.61 93.63,-836.28 89.1,-831.81 87.31,-835.61"/>
</g>
<!-- src/routes/AppRoutes.jsx -->
<g id="node23" class="node">
<title>src/routes/AppRoutes.jsx</title>
<g id="a_node23"><a xlink:href="src/routes/AppRoutes.jsx" xlink:title="AppRoutes.jsx">
<path fill="#ffff77" stroke="black" d="M155.08,-599.13C155.08,-599.13 92.17,-599.13 92.17,-599.13 89.08,-599.13 86,-596.04 86,-592.96 86,-592.96 86,-586.79 86,-586.79 86,-583.71 89.08,-580.63 92.17,-580.63 92.17,-580.63 155.08,-580.63 155.08,-580.63 158.17,-580.63 161.25,-583.71 161.25,-586.79 161.25,-586.79 161.25,-592.96 161.25,-592.96 161.25,-596.04 158.17,-599.13 155.08,-599.13"/>
<text xml:space="preserve" text-anchor="start" x="94" y="-586.58" font-family="Helvetica,sans-Serif" font-size="9.00">AppRoutes.jsx</text>
</a>
</g>
</g>
<!-- src/main.jsx&#45;&gt;src/routes/AppRoutes.jsx -->
<g id="edge16" class="edge">
<title>src/main.jsx&#45;&gt;src/routes/AppRoutes.jsx</title>
<path fill="none" stroke="#000000" stroke-width="2" stroke-opacity="0.200000" d="M51.54,-498.56C64.96,-515.8 93.13,-551.99 109.69,-573.27"/>
<polygon fill="#000000" fill-opacity="0.200000" stroke="#000000" stroke-width="2" stroke-opacity="0.200000" points="108.02,-574.54 113.36,-577.98 111.34,-571.96 108.02,-574.54"/>
</g>
<!-- src/routes/AppRoutes.jsx&#45;&gt;node_modules/react&#45;router&#45;dom -->
<g id="edge55" class="edge">
<title>src/routes/AppRoutes.jsx&#45;&gt;node_modules/react&#45;router&#45;dom</title>
<path fill="none" stroke="#000000" stroke-opacity="0.200000" d="M124.43,-580.44C123.8,-523.94 128.65,-228.52 293,-103.88 337.61,-70.04 503.78,-58.85 544.88,-96.88 561.73,-112.47 538.1,-182.31 552.88,-199.88 556.68,-204.41 561.58,-207.75 566.95,-210.2"/>
<polygon fill="#000000" fill-opacity="0.200000" stroke="#000000" stroke-opacity="0.200000" points="566.2,-212.16 572.56,-212.32 567.69,-208.23 566.2,-212.16"/>
</g>
<!-- src/pages/Account.jsx -->
<g id="node24" class="node">
<title>src/pages/Account.jsx</title>
<g id="a_node24"><a xlink:href="src/pages/Account.jsx" xlink:title="Account.jsx">
<path fill="#ffff77" stroke="black" d="M256.21,-754.13C256.21,-754.13 206.04,-754.13 206.04,-754.13 202.96,-754.13 199.88,-751.04 199.88,-747.96 199.88,-747.96 199.88,-741.79 199.88,-741.79 199.88,-738.71 202.96,-735.63 206.04,-735.63 206.04,-735.63 256.21,-735.63 256.21,-735.63 259.29,-735.63 262.38,-738.71 262.38,-741.79 262.38,-741.79 262.38,-747.96 262.38,-747.96 262.38,-751.04 259.29,-754.13 256.21,-754.13"/>
<text xml:space="preserve" text-anchor="start" x="207.88" y="-741.58" font-family="Helvetica,sans-Serif" font-size="9.00">Account.jsx</text>
</a>
</g>
</g>
<!-- src/routes/AppRoutes.jsx&#45;&gt;src/pages/Account.jsx -->
<g id="edge46" class="edge">
<title>src/routes/AppRoutes.jsx&#45;&gt;src/pages/Account.jsx</title>
<path fill="none" stroke="#000000" stroke-width="2" stroke-opacity="0.200000" d="M161.6,-596.4C164.51,-598.11 167.13,-600.23 169.25,-602.88 186.79,-624.78 159.82,-706.89 177.25,-728.88 180.93,-733.52 185.92,-736.86 191.37,-739.25"/>
<polygon fill="#000000" fill-opacity="0.200000" stroke="#000000" stroke-width="2" stroke-opacity="0.200000" points="190.36,-741.12 196.72,-741.11 191.74,-737.15 190.36,-741.12"/>
</g>
<!-- src/pages/Dashboard.jsx -->
<g id="node26" class="node">
<title>src/pages/Dashboard.jsx</title>
<g id="a_node26"><a xlink:href="src/pages/Dashboard.jsx" xlink:title="Dashboard.jsx">
<path fill="#ffff77" stroke="black" d="M262.58,-785.13C262.58,-785.13 199.67,-785.13 199.67,-785.13 196.58,-785.13 193.5,-782.04 193.5,-778.96 193.5,-778.96 193.5,-772.79 193.5,-772.79 193.5,-769.71 196.58,-766.63 199.67,-766.63 199.67,-766.63 262.58,-766.63 262.58,-766.63 265.67,-766.63 268.75,-769.71 268.75,-772.79 268.75,-772.79 268.75,-778.96 268.75,-778.96 268.75,-782.04 265.67,-785.13 262.58,-785.13"/>
<text xml:space="preserve" text-anchor="start" x="201.5" y="-772.58" font-family="Helvetica,sans-Serif" font-size="9.00">Dashboard.jsx</text>
</a>
</g>
</g>
<!-- src/routes/AppRoutes.jsx&#45;&gt;src/pages/Dashboard.jsx -->
<g id="edge48" class="edge">
<title>src/routes/AppRoutes.jsx&#45;&gt;src/pages/Dashboard.jsx</title>
<path fill="none" stroke="#000000" stroke-width="2" stroke-opacity="0.200000" d="M161.63,-596.37C164.53,-598.08 167.15,-600.22 169.25,-602.88 190.92,-630.28 155.72,-732.36 177.25,-759.88 179.48,-762.73 182.2,-765.09 185.22,-767.03"/>
<polygon fill="#000000" fill-opacity="0.200000" stroke="#000000" stroke-width="2" stroke-opacity="0.200000" points="184.23,-768.88 190.53,-769.72 186.12,-765.14 184.23,-768.88"/>
</g>
<!-- src/pages/Group.jsx -->
<g id="node27" class="node">
<title>src/pages/Group.jsx</title>
<g id="a_node27"><a xlink:href="src/pages/Group.jsx" xlink:title="Group.jsx">
<path fill="#ffff77" stroke="black" d="M252.46,-568.13C252.46,-568.13 209.79,-568.13 209.79,-568.13 206.71,-568.13 203.62,-565.04 203.62,-561.96 203.62,-561.96 203.62,-555.79 203.62,-555.79 203.62,-552.71 206.71,-549.63 209.79,-549.63 209.79,-549.63 252.46,-549.63 252.46,-549.63 255.54,-549.63 258.62,-552.71 258.62,-555.79 258.62,-555.79 258.62,-561.96 258.62,-561.96 258.62,-565.04 255.54,-568.13 252.46,-568.13"/>
<text xml:space="preserve" text-anchor="start" x="211.62" y="-555.58" font-family="Helvetica,sans-Serif" font-size="9.00">Group.jsx</text>
</a>
</g>
</g>
<!-- src/routes/AppRoutes.jsx&#45;&gt;src/pages/Group.jsx -->
<g id="edge49" class="edge">
<title>src/routes/AppRoutes.jsx&#45;&gt;src/pages/Group.jsx</title>
<path fill="none" stroke="#000000" stroke-width="2" stroke-opacity="0.200000" d="M157.72,-580.15C169.48,-576.7 182.77,-572.79 194.73,-569.28"/>
<polygon fill="#000000" fill-opacity="0.200000" stroke="#000000" stroke-width="2" stroke-opacity="0.200000" points="195.09,-571.36 200.25,-567.66 193.9,-567.33 195.09,-571.36"/>
</g>
<!-- src/pages/History.jsx -->
<g id="node28" class="node">
<title>src/pages/History.jsx</title>
<g id="a_node28"><a xlink:href="src/pages/History.jsx" xlink:title="History.jsx">
<path fill="#ffff77" stroke="black" d="M253.58,-599.13C253.58,-599.13 208.67,-599.13 208.67,-599.13 205.58,-599.13 202.5,-596.04 202.5,-592.96 202.5,-592.96 202.5,-586.79 202.5,-586.79 202.5,-583.71 205.58,-580.63 208.67,-580.63 208.67,-580.63 253.58,-580.63 253.58,-580.63 256.67,-580.63 259.75,-583.71 259.75,-586.79 259.75,-586.79 259.75,-592.96 259.75,-592.96 259.75,-596.04 256.67,-599.13 253.58,-599.13"/>
<text xml:space="preserve" text-anchor="start" x="210.5" y="-586.58" font-family="Helvetica,sans-Serif" font-size="9.00">History.jsx</text>
</a>
</g>
</g>
<!-- src/routes/AppRoutes.jsx&#45;&gt;src/pages/History.jsx -->
<g id="edge50" class="edge">
<title>src/routes/AppRoutes.jsx&#45;&gt;src/pages/History.jsx</title>
<path fill="none" stroke="#000000" stroke-width="2" stroke-opacity="0.200000" d="M161.52,-589.88C171.82,-589.88 183,-589.88 193.29,-589.88"/>
<polygon fill="#000000" fill-opacity="0.200000" stroke="#000000" stroke-width="2" stroke-opacity="0.200000" points="193.03,-591.98 199.03,-589.88 193.03,-587.78 193.03,-591.98"/>
</g>
<!-- src/pages/Home.jsx -->
<g id="node29" class="node">
<title>src/pages/Home.jsx</title>
<g id="a_node29"><a xlink:href="src/pages/Home.jsx" xlink:title="Home.jsx">
<path fill="#ffff77" stroke="black" d="M252.08,-506.13C252.08,-506.13 210.17,-506.13 210.17,-506.13 207.08,-506.13 204,-503.04 204,-499.96 204,-499.96 204,-493.79 204,-493.79 204,-490.71 207.08,-487.63 210.17,-487.63 210.17,-487.63 252.08,-487.63 252.08,-487.63 255.17,-487.63 258.25,-490.71 258.25,-493.79 258.25,-493.79 258.25,-499.96 258.25,-499.96 258.25,-503.04 255.17,-506.13 252.08,-506.13"/>
<text xml:space="preserve" text-anchor="start" x="212" y="-493.58" font-family="Helvetica,sans-Serif" font-size="9.00">Home.jsx</text>
</a>
</g>
</g>
<!-- src/routes/AppRoutes.jsx&#45;&gt;src/pages/Home.jsx -->
<g id="edge51" class="edge">
<title>src/routes/AppRoutes.jsx&#45;&gt;src/pages/Home.jsx</title>
<path fill="none" stroke="#000000" stroke-width="2" stroke-opacity="0.200000" d="M128.59,-580.28C135.83,-563.97 152.7,-530.87 177.25,-512.88 182.57,-508.98 188.84,-506.02 195.18,-503.78"/>
<polygon fill="#000000" fill-opacity="0.200000" stroke="#000000" stroke-width="2" stroke-opacity="0.200000" points="195.75,-505.8 200.87,-502.03 194.52,-501.78 195.75,-505.8"/>
</g>
<!-- src/pages/Login.jsx -->
<g id="node30" class="node">
<title>src/pages/Login.jsx</title>
<g id="a_node30"><a xlink:href="src/pages/Login.jsx" xlink:title="Login.jsx">
<path fill="#ffff77" stroke="black" d="M251.96,-630.13C251.96,-630.13 210.29,-630.13 210.29,-630.13 207.21,-630.13 204.12,-627.04 204.12,-623.96 204.12,-623.96 204.12,-617.79 204.12,-617.79 204.12,-614.71 207.21,-611.63 210.29,-611.63 210.29,-611.63 251.96,-611.63 251.96,-611.63 255.04,-611.63 258.12,-614.71 258.12,-617.79 258.12,-617.79 258.12,-623.96 258.12,-623.96 258.12,-627.04 255.04,-630.13 251.96,-630.13"/>
<text xml:space="preserve" text-anchor="start" x="212.75" y="-617.58" font-family="Helvetica,sans-Serif" font-size="9.00">Login.jsx</text>
</a>
</g>
</g>
<!-- src/routes/AppRoutes.jsx&#45;&gt;src/pages/Login.jsx -->
<g id="edge52" class="edge">
<title>src/routes/AppRoutes.jsx&#45;&gt;src/pages/Login.jsx</title>
<path fill="none" stroke="#000000" stroke-width="2" stroke-opacity="0.200000" d="M157.77,-599.52C161.64,-600.65 165.53,-601.79 169.25,-602.88 177.65,-605.34 186.69,-608.01 195.18,-610.52"/>
<polygon fill="#000000" fill-opacity="0.200000" stroke="#000000" stroke-width="2" stroke-opacity="0.200000" points="194.51,-612.51 200.86,-612.2 195.7,-608.48 194.51,-612.51"/>
</g>
<!-- src/pages/PageNotFound.jsx -->
<g id="node31" class="node">
<title>src/pages/PageNotFound.jsx</title>
<g id="a_node31"><a xlink:href="src/pages/PageNotFound.jsx" xlink:title="PageNotFound.jsx">
<path fill="#ffff77" stroke="black" d="M270.83,-692.13C270.83,-692.13 191.42,-692.13 191.42,-692.13 188.33,-692.13 185.25,-689.04 185.25,-685.96 185.25,-685.96 185.25,-679.79 185.25,-679.79 185.25,-676.71 188.33,-673.63 191.42,-673.63 191.42,-673.63 270.83,-673.63 270.83,-673.63 273.92,-673.63 277,-676.71 277,-679.79 277,-679.79 277,-685.96 277,-685.96 277,-689.04 273.92,-692.13 270.83,-692.13"/>
<text xml:space="preserve" text-anchor="start" x="193.25" y="-679.58" font-family="Helvetica,sans-Serif" font-size="9.00">PageNotFound.jsx</text>
</a>
</g>
</g>
<!-- src/routes/AppRoutes.jsx&#45;&gt;src/pages/PageNotFound.jsx -->
<g id="edge53" class="edge">
<title>src/routes/AppRoutes.jsx&#45;&gt;src/pages/PageNotFound.jsx</title>
<path fill="none" stroke="#000000" stroke-width="2" stroke-opacity="0.200000" d="M161.43,-596.54C164.37,-598.22 167.05,-600.3 169.25,-602.88 187.84,-624.69 158.77,-644.97 177.25,-666.88 177.53,-667.21 177.81,-667.53 178.1,-667.85"/>
<polygon fill="#000000" fill-opacity="0.200000" stroke="#000000" stroke-width="2" stroke-opacity="0.200000" points="176.74,-669.44 182.69,-671.65 179.42,-666.21 176.74,-669.44"/>
</g>
<!-- src/pages/Signup.jsx -->
<g id="node32" class="node">
<title>src/pages/Signup.jsx</title>
<g id="a_node32"><a xlink:href="src/pages/Signup.jsx" xlink:title="Signup.jsx">
<path fill="#ffff77" stroke="black" d="M254.33,-661.13C254.33,-661.13 207.92,-661.13 207.92,-661.13 204.83,-661.13 201.75,-658.04 201.75,-654.96 201.75,-654.96 201.75,-648.79 201.75,-648.79 201.75,-645.71 204.83,-642.63 207.92,-642.63 207.92,-642.63 254.33,-642.63 254.33,-642.63 257.42,-642.63 260.5,-645.71 260.5,-648.79 260.5,-648.79 260.5,-654.96 260.5,-654.96 260.5,-658.04 257.42,-661.13 254.33,-661.13"/>
<text xml:space="preserve" text-anchor="start" x="209.75" y="-648.58" font-family="Helvetica,sans-Serif" font-size="9.00">Signup.jsx</text>
</a>
</g>
</g>
<!-- src/routes/AppRoutes.jsx&#45;&gt;src/pages/Signup.jsx -->
<g id="edge54" class="edge">
<title>src/routes/AppRoutes.jsx&#45;&gt;src/pages/Signup.jsx</title>
<path fill="none" stroke="#000000" stroke-width="2" stroke-opacity="0.200000" d="M161.56,-597.04C164.4,-598.62 167.02,-600.54 169.25,-602.88 179.68,-613.79 166.88,-624.91 177.25,-635.88 181.6,-640.48 187.22,-643.77 193.17,-646.12"/>
<polygon fill="#000000" fill-opacity="0.200000" stroke="#000000" stroke-width="2" stroke-opacity="0.200000" points="192.16,-648 198.51,-647.85 193.45,-644 192.16,-648"/>
</g>
<!-- src/pages/app.jsx -->
<g id="node33" class="node">
<title>src/pages/app.jsx</title>
<g id="a_node33"><a xlink:href="src/pages/app.jsx" xlink:title="app.jsx">
<path fill="#ffff77" stroke="black" d="M251.96,-537.13C251.96,-537.13 210.29,-537.13 210.29,-537.13 207.21,-537.13 204.12,-534.04 204.12,-530.96 204.12,-530.96 204.12,-524.79 204.12,-524.79 204.12,-521.71 207.21,-518.63 210.29,-518.63 210.29,-518.63 251.96,-518.63 251.96,-518.63 255.04,-518.63 258.12,-521.71 258.12,-524.79 258.12,-524.79 258.12,-530.96 258.12,-530.96 258.12,-534.04 255.04,-537.13 251.96,-537.13"/>
<text xml:space="preserve" text-anchor="start" x="216.5" y="-524.58" font-family="Helvetica,sans-Serif" font-size="9.00">app.jsx</text>
</a>
</g>
</g>
<!-- src/routes/AppRoutes.jsx&#45;&gt;src/pages/app.jsx -->
<g id="edge47" class="edge">
<title>src/routes/AppRoutes.jsx&#45;&gt;src/pages/app.jsx</title>
<path fill="none" stroke="#000000" stroke-width="2" stroke-opacity="0.200000" d="M133.03,-580.44C142.73,-570.09 159.63,-553.64 177.25,-543.88 182.84,-540.78 189.11,-538.21 195.32,-536.1"/>
<polygon fill="#000000" fill-opacity="0.200000" stroke="#000000" stroke-width="2" stroke-opacity="0.200000" points="195.69,-538.19 200.8,-534.4 194.44,-534.17 195.69,-538.19"/>
</g>
<!-- src/pages/App.jsx -->
<g id="node25" class="node">
<title>src/pages/App.jsx</title>
<g id="a_node25"><a xlink:href="src/pages/App.jsx" xlink:title="App.jsx">
<path fill="#ffff77" stroke="black" d="M251.96,-723.13C251.96,-723.13 210.29,-723.13 210.29,-723.13 207.21,-723.13 204.12,-720.04 204.12,-716.96 204.12,-716.96 204.12,-710.79 204.12,-710.79 204.12,-707.71 207.21,-704.63 210.29,-704.63 210.29,-704.63 251.96,-704.63 251.96,-704.63 255.04,-704.63 258.12,-707.71 258.12,-710.79 258.12,-710.79 258.12,-716.96 258.12,-716.96 258.12,-720.04 255.04,-723.13 251.96,-723.13"/>
<text xml:space="preserve" text-anchor="start" x="216.12" y="-710.58" font-family="Helvetica,sans-Serif" font-size="9.00">App.jsx</text>
</a>
</g>
</g>
<!-- src/pages/App.jsx&#45;&gt;node_modules/react&#45;router&#45;dom -->
<g id="edge24" class="edge">
<title>src/pages/App.jsx&#45;&gt;node_modules/react&#45;router&#45;dom</title>
<path fill="none" stroke="#000000" stroke-opacity="0.200000" d="M258.61,-712.16C268.43,-710.11 278.7,-705.98 285,-697.88 297.42,-681.89 282.04,-532.89 293,-515.88 361,-410.31 476.49,-493.19 544.88,-387.88 563.78,-358.77 530.89,-258.74 552.88,-231.88 556.76,-227.13 561.83,-223.69 567.42,-221.2"/>
<polygon fill="#000000" fill-opacity="0.200000" stroke="#000000" stroke-opacity="0.200000" points="567.85,-223.28 572.75,-219.22 566.39,-219.34 567.85,-223.28"/>
</g>
<!-- src/pages/App.jsx&#45;&gt;src/assets/constants/static.json -->
<g id="edge21" class="edge">
<title>src/pages/App.jsx&#45;&gt;src/assets/constants/static.json</title>
<path fill="none" stroke="#000000" stroke-width="2" stroke-opacity="0.200000" d="M258.51,-714.11C273.68,-714.24 292.96,-714.41 309.55,-714.56"/>
<polygon fill="#000000" fill-opacity="0.200000" stroke="#000000" stroke-width="2" stroke-opacity="0.200000" points="309.4,-716.66 315.42,-714.61 309.44,-712.46 309.4,-716.66"/>
</g>
<!-- src/pages/App.jsx&#45;&gt;src/components/ToggleTheme.jsx -->
<g id="edge22" class="edge">
<title>src/pages/App.jsx&#45;&gt;src/components/ToggleTheme.jsx</title>
<path fill="none" stroke="#000000" stroke-width="2" stroke-opacity="0.200000" d="M258.5,-709.63C267.52,-707.25 277.28,-703.57 285,-697.88 310.53,-679.07 328.78,-646.15 338.31,-625.76"/>
<polygon fill="#000000" fill-opacity="0.200000" stroke="#000000" stroke-width="2" stroke-opacity="0.200000" points="340.18,-626.72 340.72,-620.39 336.35,-625 340.18,-626.72"/>
</g>
<!-- src/pages/App.jsx&#45;&gt;src/css/pages/App.css -->
<g id="edge23" class="edge">
<title>src/pages/App.jsx&#45;&gt;src/css/pages/App.css</title>
<path fill="none" stroke="#000000" stroke-width="2" stroke-opacity="0.200000" d="M258.56,-712.12C268.37,-710.06 278.65,-705.94 285,-697.88 304.41,-673.22 272.05,-580.24 293,-556.88 328.87,-516.89 396.2,-516.73 437.54,-521.17"/>
<polygon fill="#000000" fill-opacity="0.200000" stroke="#000000" stroke-width="2" stroke-opacity="0.200000" points="437.23,-523.25 443.44,-521.88 437.74,-519.08 437.23,-523.25"/>
</g>
<!-- src/pages/Home.jsx&#45;&gt;node_modules/react&#45;router&#45;dom -->
<g id="edge25" class="edge">
<title>src/pages/Home.jsx&#45;&gt;node_modules/react&#45;router&#45;dom</title>
<path fill="none" stroke="#000000" stroke-opacity="0.200000" d="M243.22,-487.2C255.01,-477.24 274.46,-461.69 293,-450.88 398.38,-389.45 474.25,-441.33 544.88,-341.88 559.07,-321.89 537.15,-250.68 552.88,-231.88 556.67,-227.34 561.56,-223.99 566.93,-221.54"/>
<polygon fill="#000000" fill-opacity="0.200000" stroke="#000000" stroke-opacity="0.200000" points="567.67,-223.5 572.53,-219.42 566.18,-219.58 567.67,-223.5"/>
</g>
<!-- src/pages/Login.jsx&#45;&gt;../auth&#45;todo/src/hooks/useSignin.js -->
<g id="edge26" class="edge">
<title>src/pages/Login.jsx&#45;&gt;../auth&#45;todo/src/hooks/useSignin.js</title>
<path fill="none" stroke="#000000" stroke-width="2" stroke-opacity="0.200000" d="M258.58,-619.14C268.4,-617.08 278.67,-612.96 285,-604.88 295.57,-591.39 285.28,-466.18 293,-450.88 326.03,-385.38 402.57,-338.39 444.37,-316.57"/>
<polygon fill="#000000" fill-opacity="0.200000" stroke="#000000" stroke-width="2" stroke-opacity="0.200000" points="445.17,-318.52 449.55,-313.92 443.25,-314.78 445.17,-318.52"/>
</g>
<!-- src/pages/Login.jsx&#45;&gt;node_modules/react&#45;toastify -->
<g id="edge33" class="edge">
<title>src/pages/Login.jsx&#45;&gt;node_modules/react&#45;toastify</title>
<path fill="none" stroke="#000000" stroke-opacity="0.200000" d="M258.42,-619.29C268.34,-617.26 278.73,-613.12 285,-604.88 296.5,-589.75 280.95,-277.58 293,-262.88 364.34,-175.84 432.61,-228.97 544.88,-236.88 554.62,-237.56 565.07,-238.78 574.86,-240.13"/>
<polygon fill="#000000" fill-opacity="0.200000" stroke="#000000" stroke-opacity="0.200000" points="574.46,-242.19 580.69,-240.96 575.05,-238.03 574.46,-242.19"/>
</g>
<!-- src/pages/Login.jsx&#45;&gt;node_modules/react&#45;router&#45;dom -->
<g id="edge32" class="edge">
<title>src/pages/Login.jsx&#45;&gt;node_modules/react&#45;router&#45;dom</title>
<path fill="none" stroke="#000000" stroke-opacity="0.200000" d="M258.43,-619.29C268.35,-617.27 278.74,-613.13 285,-604.88 298.23,-587.43 280.92,-229.14 293,-210.88 324.53,-163.21 500.76,-122.54 544.88,-158.88 559.21,-170.68 540.13,-186.38 552.88,-199.88 556.88,-204.12 561.85,-207.3 567.22,-209.68"/>
<polygon fill="#000000" fill-opacity="0.200000" stroke="#000000" stroke-opacity="0.200000" points="566.42,-211.62 572.77,-211.74 567.88,-207.68 566.42,-211.62"/>
</g>
<!-- src/pages/Login.jsx&#45;&gt;src/assets/icons/SVGIcons.jsx -->
<g id="edge27" class="edge">
<title>src/pages/Login.jsx&#45;&gt;src/assets/icons/SVGIcons.jsx</title>
<path fill="none" stroke="#000000" stroke-width="2" stroke-opacity="0.200000" d="M258.51,-622.67C268.32,-624.74 278.61,-628.85 285,-636.88 301.24,-657.26 277.81,-732.7 293,-753.88 295.86,-757.87 299.59,-761.14 303.74,-763.81"/>
<polygon fill="#000000" fill-opacity="0.200000" stroke="#000000" stroke-width="2" stroke-opacity="0.200000" points="302.62,-765.6 308.9,-766.59 304.61,-761.9 302.62,-765.6"/>
</g>
<!-- src/pages/Login.jsx&#45;&gt;src/components/ReCaptchaBox.jsx -->
<g id="edge28" class="edge">
<title>src/pages/Login.jsx&#45;&gt;src/components/ReCaptchaBox.jsx</title>
<path fill="none" stroke="#000000" stroke-width="2" stroke-opacity="0.200000" d="M258.52,-616.66C267.54,-614.28 277.3,-610.59 285,-604.88 290.15,-601.06 287.85,-596.7 293,-592.88 294.04,-592.11 295.11,-591.38 296.21,-590.68"/>
<polygon fill="#000000" fill-opacity="0.200000" stroke="#000000" stroke-width="2" stroke-opacity="0.200000" points="296.9,-592.7 301.19,-588.01 294.91,-589 296.9,-592.7"/>
</g>
<!-- src/pages/Login.jsx&#45;&gt;src/css/components/Input.jsx -->
<g id="edge29" class="edge">
<title>src/pages/Login.jsx&#45;&gt;src/css/components/Input.jsx</title>
<path fill="none" stroke="#000000" stroke-width="2" stroke-opacity="0.200000" d="M258.62,-618.89C268.32,-616.78 278.5,-612.69 285,-604.88 295.29,-592.5 281,-543.61 293,-532.88 328.68,-500.94 364.85,-501.19 400.75,-532.88 422.24,-551.85 390.67,-574.63 408.75,-596.88 416.01,-605.82 427.09,-611.14 438.01,-614.3"/>
<polygon fill="#000000" fill-opacity="0.200000" stroke="#000000" stroke-width="2" stroke-opacity="0.200000" points="437.38,-616.31 443.71,-615.68 438.37,-612.22 437.38,-616.31"/>
</g>
<!-- src/pages/Login.jsx&#45;&gt;src/css/pages/Login.css -->
<g id="edge30" class="edge">
<title>src/pages/Login.jsx&#45;&gt;src/css/pages/Login.css</title>
<path fill="none" stroke="#000000" stroke-width="2" stroke-opacity="0.200000" d="M258.46,-619.04C268.26,-616.97 278.56,-612.87 285,-604.88 298.86,-587.7 276.78,-520.84 293,-505.88 310.6,-489.64 382.07,-490.9 400.75,-505.88 413.54,-516.13 397.31,-530.14 408.75,-541.88 416.26,-549.58 426.87,-553.79 437.3,-556.03"/>
<polygon fill="#000000" fill-opacity="0.200000" stroke="#000000" stroke-width="2" stroke-opacity="0.200000" points="436.7,-558.06 442.96,-556.98 437.39,-553.91 436.7,-558.06"/>
</g>
<!-- src/pages/Login.jsx&#45;&gt;src/hooks/useRecaptcha.js -->
<g id="edge31" class="edge">
<title>src/pages/Login.jsx&#45;&gt;src/hooks/useRecaptcha.js</title>
<path fill="none" stroke="#000000" stroke-width="2" stroke-opacity="0.200000" d="M258.52,-625.55C267.45,-627.96 277.14,-631.56 285,-636.88 289.71,-640.07 288.1,-643.97 293,-646.88 334.83,-671.68 368.67,-629.33 400.75,-665.88 413.96,-680.92 396.08,-830.38 408.75,-845.88 412.6,-850.59 417.62,-854.04 423.14,-856.54"/>
<polygon fill="#000000" fill-opacity="0.200000" stroke="#000000" stroke-width="2" stroke-opacity="0.200000" points="422.33,-858.48 428.68,-858.54 423.75,-854.53 422.33,-858.48"/>
</g>
<!-- src/pages/Signup.jsx&#45;&gt;node_modules/react&#45;toastify -->
<g id="edge41" class="edge">
<title>src/pages/Signup.jsx&#45;&gt;node_modules/react&#45;toastify</title>
<path fill="none" stroke="#000000" stroke-opacity="0.200000" d="M260.75,-649.61C269.87,-647.4 279.11,-643.32 285,-635.88 293.91,-624.62 289.18,-520.72 293,-506.88 322.83,-398.86 318.41,-349.18 408.75,-282.88 457.58,-247.04 530.18,-242.57 575.08,-243.84"/>
<polygon fill="#000000" fill-opacity="0.200000" stroke="#000000" stroke-opacity="0.200000" points="574.73,-245.92 580.81,-244.04 574.88,-241.73 574.73,-245.92"/>
</g>
<!-- src/pages/Signup.jsx&#45;&gt;node_modules/react&#45;router&#45;dom -->
<g id="edge40" class="edge">
<title>src/pages/Signup.jsx&#45;&gt;node_modules/react&#45;router&#45;dom</title>
<path fill="none" stroke="#000000" stroke-opacity="0.200000" d="M260.91,-649.73C270.04,-647.54 279.25,-643.44 285,-635.88 296.7,-620.48 282.02,-303.79 293,-287.88 352.7,-201.37 492.12,-201.81 566.58,-209.05"/>
<polygon fill="#000000" fill-opacity="0.200000" stroke="#000000" stroke-opacity="0.200000" points="566.33,-211.13 572.51,-209.66 566.76,-206.96 566.33,-211.13"/>
</g>
<!-- src/pages/Signup.jsx&#45;&gt;src/assets/icons/SVGIcons.jsx -->
<g id="edge34" class="edge">
<title>src/pages/Signup.jsx&#45;&gt;src/assets/icons/SVGIcons.jsx</title>
<path fill="none" stroke="#000000" stroke-width="2" stroke-opacity="0.200000" d="M260.89,-654.32C269.91,-656.55 279.05,-660.6 285,-667.88 297.14,-682.74 281.62,-738.42 293,-753.88 295.87,-757.78 299.57,-761 303.67,-763.64"/>
<polygon fill="#000000" fill-opacity="0.200000" stroke="#000000" stroke-width="2" stroke-opacity="0.200000" points="302.46,-765.38 308.74,-766.38 304.46,-761.68 302.46,-765.38"/>
</g>
<!-- src/pages/Signup.jsx&#45;&gt;src/components/ReCaptchaBox.jsx -->
<g id="edge35" class="edge">
<title>src/pages/Signup.jsx&#45;&gt;src/components/ReCaptchaBox.jsx</title>
<path fill="none" stroke="#000000" stroke-width="2" stroke-opacity="0.200000" d="M260.8,-649.05C269.7,-646.78 278.79,-642.81 285,-635.88 297.97,-621.4 280.03,-607.36 293,-592.88 293.29,-592.56 293.58,-592.24 293.88,-591.93"/>
<polygon fill="#000000" fill-opacity="0.200000" stroke="#000000" stroke-width="2" stroke-opacity="0.200000" points="295.19,-593.58 298.58,-588.2 292.57,-590.29 295.19,-593.58"/>
</g>
<!-- src/pages/Signup.jsx&#45;&gt;src/css/components/Input.jsx -->
<g id="edge36" class="edge">
<title>src/pages/Signup.jsx&#45;&gt;src/css/components/Input.jsx</title>
<path fill="none" stroke="#000000" stroke-width="2" stroke-opacity="0.200000" d="M260.86,-649.41C269.88,-647.18 279.02,-643.13 285,-635.88 296.22,-622.26 279.91,-568.71 293,-556.88 328.53,-524.77 363.72,-526.52 400.75,-556.88 414.77,-568.37 396.81,-583.23 408.75,-596.88 416.27,-605.47 427.31,-610.72 438.11,-613.91"/>
<polygon fill="#000000" fill-opacity="0.200000" stroke="#000000" stroke-width="2" stroke-opacity="0.200000" points="437.39,-615.89 443.72,-615.32 438.41,-611.82 437.39,-615.89"/>
</g>
<!-- src/pages/Signup.jsx&#45;&gt;src/css/pages/Login.css -->
<g id="edge37" class="edge">
<title>src/pages/Signup.jsx&#45;&gt;src/css/pages/Login.css</title>
<path fill="none" stroke="#000000" stroke-width="2" stroke-opacity="0.200000" d="M260.96,-649.49C269.99,-647.27 279.12,-643.21 285,-635.88 299.65,-617.63 275.84,-546.78 293,-530.88 328.13,-498.33 358.08,-509.15 400.75,-530.88 406.14,-533.62 403.74,-538.5 408.75,-541.88 417.13,-547.53 427.33,-551.18 437.1,-553.55"/>
<polygon fill="#000000" fill-opacity="0.200000" stroke="#000000" stroke-width="2" stroke-opacity="0.200000" points="436.64,-555.59 442.94,-554.76 437.49,-551.48 436.64,-555.59"/>
</g>
<!-- src/pages/Signup.jsx&#45;&gt;src/hooks/useRecaptcha.js -->
<g id="edge38" class="edge">
<title>src/pages/Signup.jsx&#45;&gt;src/hooks/useRecaptcha.js</title>
<path fill="none" stroke="#000000" stroke-width="2" stroke-opacity="0.200000" d="M260.87,-660.13C271,-662.98 282.49,-666.14 293,-668.88 340.68,-681.28 369.26,-656.99 400.75,-694.88 422.23,-720.72 387.37,-819.95 408.75,-845.88 412.62,-850.58 417.65,-854.01 423.18,-856.51"/>
<polygon fill="#000000" fill-opacity="0.200000" stroke="#000000" stroke-width="2" stroke-opacity="0.200000" points="422.37,-858.45 428.72,-858.51 423.79,-854.5 422.37,-858.45"/>
</g>
<!-- src/pages/Signup.jsx&#45;&gt;src/hooks/useSignup.js -->
<g id="edge39" class="edge">
<title>src/pages/Signup.jsx&#45;&gt;src/hooks/useSignup.js</title>
<path fill="none" stroke="#000000" stroke-width="2" stroke-opacity="0.200000" d="M260.98,-651.94C304.16,-652.71 382.48,-656.89 400.75,-676.88 421.48,-699.55 389.15,-791.23 408.75,-814.88 414.24,-821.5 422.01,-825.62 430.26,-828.13"/>
<polygon fill="#000000" fill-opacity="0.200000" stroke="#000000" stroke-width="2" stroke-opacity="0.200000" points="429.68,-830.15 436.01,-829.5 430.66,-826.06 429.68,-830.15"/>
</g>
<!-- src/pages/app.jsx&#45;&gt;node_modules/react&#45;router&#45;dom -->
<g id="edge45" class="edge">
<title>src/pages/app.jsx&#45;&gt;node_modules/react&#45;router&#45;dom</title>
<path fill="none" stroke="#000000" stroke-opacity="0.200000" d="M258.43,-526.29C268.35,-524.27 278.74,-520.13 285,-511.88 297.73,-495.1 279.67,-149.18 293,-132.88 310.81,-111.1 524.15,-87.86 544.88,-106.88 560.16,-120.9 539.46,-184.06 552.88,-199.88 556.7,-204.39 561.61,-207.72 566.99,-210.17"/>
<polygon fill="#000000" fill-opacity="0.200000" stroke="#000000" stroke-opacity="0.200000" points="566.24,-212.13 572.6,-212.29 567.72,-208.2 566.24,-212.13"/>
</g>
<!-- src/pages/app.jsx&#45;&gt;src/assets/constants/static.json -->
<g id="edge42" class="edge">
<title>src/pages/app.jsx&#45;&gt;src/assets/constants/static.json</title>
<path fill="none" stroke="#000000" stroke-width="2" stroke-opacity="0.200000" d="M258.47,-529.7C268.28,-531.77 278.57,-535.88 285,-543.88 299.39,-561.77 284.71,-625.47 293,-646.88 300.9,-667.31 317.07,-686.62 329.46,-699.4"/>
<polygon fill="#000000" fill-opacity="0.200000" stroke="#000000" stroke-width="2" stroke-opacity="0.200000" points="327.66,-700.57 333.39,-703.33 330.63,-697.6 327.66,-700.57"/>
</g>
<!-- src/pages/app.jsx&#45;&gt;src/components/ToggleTheme.jsx -->
<g id="edge43" class="edge">
<title>src/pages/app.jsx&#45;&gt;src/components/ToggleTheme.jsx</title>
<path fill="none" stroke="#000000" stroke-width="2" stroke-opacity="0.200000" d="M258.4,-530.06C268.07,-532.19 278.29,-536.24 285,-543.88 299.28,-560.12 278.72,-575.63 293,-591.88 294.02,-593.04 295.13,-594.12 296.3,-595.13"/>
<polygon fill="#000000" fill-opacity="0.200000" stroke="#000000" stroke-width="2" stroke-opacity="0.200000" points="294.98,-596.77 301.13,-598.38 297.33,-593.29 294.98,-596.77"/>
</g>
<!-- src/pages/app.jsx&#45;&gt;src/css/pages/App.css -->
<g id="edge44" class="edge">
<title>src/pages/app.jsx&#45;&gt;src/css/pages/App.css</title>
<path fill="none" stroke="#000000" stroke-width="2" stroke-opacity="0.200000" d="M258.47,-524.78C267.8,-522.52 277.77,-518.61 285,-511.88 292.31,-505.07 284.78,-496.55 293,-490.88 332.43,-463.7 354.14,-479.89 400.75,-490.88 418.63,-495.09 437.13,-504.45 450.92,-512.56"/>
<polygon fill="#000000" fill-opacity="0.200000" stroke="#000000" stroke-width="2" stroke-opacity="0.200000" points="449.65,-514.25 455.87,-515.58 451.84,-510.66 449.65,-514.25"/>
</g>
</g>
</svg>
