<?xml version="1.0" encoding="UTF-8" standalone="no"?>
<!DOCTYPE svg PUBLIC "-//W3C//DTD SVG 1.1//EN"
 "http://www.w3.org/Graphics/SVG/1.1/DTD/svg11.dtd">
<!-- Generated by graphviz version 13.0.1 (20250615.1724)
 -->
<!-- Title: dependency&#45;cruiser output Pages: 1 -->
<svg width="655pt" height="487pt"
 viewBox="0.00 0.00 655.00 487.00" xmlns="http://www.w3.org/2000/svg" xmlns:xlink="http://www.w3.org/1999/xlink">
<g id="graph0" class="graph" transform="scale(1 1) rotate(0) translate(4 482.84)">
<title>dependency&#45;cruiser output</title>
<polygon fill="white" stroke="none" points="-4,4 -4,-482.84 651,-482.84 651,4 -4,4"/>
<g id="clust1" class="cluster">
<title>cluster_node_modules</title>
<path fill="#ffffff" stroke="black" stroke-width="2" d="M550.75,-51.84C550.75,-51.84 627,-51.84 627,-51.84 633,-51.84 639,-57.84 639,-63.84 639,-63.84 639,-154.84 639,-154.84 639,-160.84 633,-166.84 627,-166.84 627,-166.84 550.75,-166.84 550.75,-166.84 544.75,-166.84 538.75,-160.84 538.75,-154.84 538.75,-154.84 538.75,-63.84 538.75,-63.84 538.75,-57.84 544.75,-51.84 550.75,-51.84"/>
<text xml:space="preserve" text-anchor="middle" x="588.88" y="-154.29" font-family="Helvetica,sans-Serif" font-weight="bold" font-size="9.00">node_modules</text>
</g>
<g id="clust2" class="cluster">
<title>cluster_src</title>
<path fill="#ffffff" stroke="black" stroke-width="2" d="M20,-93.84C20,-93.84 518.75,-93.84 518.75,-93.84 524.75,-93.84 530.75,-99.84 530.75,-105.84 530.75,-105.84 530.75,-458.84 530.75,-458.84 530.75,-464.84 524.75,-470.84 518.75,-470.84 518.75,-470.84 20,-470.84 20,-470.84 14,-470.84 8,-464.84 8,-458.84 8,-458.84 8,-105.84 8,-105.84 8,-99.84 14,-93.84 20,-93.84"/>
<text xml:space="preserve" text-anchor="middle" x="269.38" y="-458.29" font-family="Helvetica,sans-Serif" font-weight="bold" font-size="9.00">src</text>
</g>
<g id="clust3" class="cluster">
<title>cluster_src/assets</title>
<path fill="#ffffff" stroke="black" stroke-width="2" d="M311.25,-294.84C311.25,-294.84 376.5,-294.84 376.5,-294.84 382.5,-294.84 388.5,-300.84 388.5,-306.84 388.5,-306.84 388.5,-431.84 388.5,-431.84 388.5,-437.84 382.5,-443.84 376.5,-443.84 376.5,-443.84 311.25,-443.84 311.25,-443.84 305.25,-443.84 299.25,-437.84 299.25,-431.84 299.25,-431.84 299.25,-306.84 299.25,-306.84 299.25,-300.84 305.25,-294.84 311.25,-294.84"/>
<text xml:space="preserve" text-anchor="middle" x="343.88" y="-431.29" font-family="Helvetica,sans-Serif" font-weight="bold" font-size="9.00">assets</text>
</g>
<g id="clust4" class="cluster">
<title>cluster_src/assets/constants</title>
<path fill="#ffffff" stroke="black" stroke-width="2" d="M319.62,-302.84C319.62,-302.84 368.12,-302.84 368.12,-302.84 374.12,-302.84 380.12,-308.84 380.12,-314.84 380.12,-314.84 380.12,-343.84 380.12,-343.84 380.12,-349.84 374.12,-355.84 368.12,-355.84 368.12,-355.84 319.62,-355.84 319.62,-355.84 313.62,-355.84 307.62,-349.84 307.62,-343.84 307.62,-343.84 307.62,-314.84 307.62,-314.84 307.62,-308.84 313.62,-302.84 319.62,-302.84"/>
<text xml:space="preserve" text-anchor="middle" x="343.88" y="-343.29" font-family="Helvetica,sans-Serif" font-weight="bold" font-size="9.00">constants</text>
</g>
<g id="clust5" class="cluster">
<title>cluster_src/assets/styles</title>
<path fill="#ffffff" stroke="black" stroke-width="2" d="M319.25,-363.84C319.25,-363.84 368.5,-363.84 368.5,-363.84 374.5,-363.84 380.5,-369.84 380.5,-375.84 380.5,-375.84 380.5,-404.84 380.5,-404.84 380.5,-410.84 374.5,-416.84 368.5,-416.84 368.5,-416.84 319.25,-416.84 319.25,-416.84 313.25,-416.84 307.25,-410.84 307.25,-404.84 307.25,-404.84 307.25,-375.84 307.25,-375.84 307.25,-369.84 313.25,-363.84 319.25,-363.84"/>
<text xml:space="preserve" text-anchor="middle" x="343.88" y="-404.29" font-family="Helvetica,sans-Serif" font-weight="bold" font-size="9.00">styles</text>
</g>
<g id="clust6" class="cluster">
<title>cluster_src/components</title>
<path fill="#ffffff" stroke="black" stroke-width="2" d="M305,-233.84C305,-233.84 382.75,-233.84 382.75,-233.84 388.75,-233.84 394.75,-239.84 394.75,-245.84 394.75,-245.84 394.75,-274.84 394.75,-274.84 394.75,-280.84 388.75,-286.84 382.75,-286.84 382.75,-286.84 305,-286.84 305,-286.84 299,-286.84 293,-280.84 293,-274.84 293,-274.84 293,-245.84 293,-245.84 293,-239.84 299,-233.84 305,-233.84"/>
<text xml:space="preserve" text-anchor="middle" x="343.88" y="-274.29" font-family="Helvetica,sans-Serif" font-weight="bold" font-size="9.00">components</text>
</g>
<g id="clust7" class="cluster">
<title>cluster_src/css</title>
<path fill="#ffffff" stroke="black" stroke-width="2" d="M414.75,-179.84C414.75,-179.84 510.75,-179.84 510.75,-179.84 516.75,-179.84 522.75,-185.84 522.75,-191.84 522.75,-191.84 522.75,-342.84 522.75,-342.84 522.75,-348.84 516.75,-354.84 510.75,-354.84 510.75,-354.84 414.75,-354.84 414.75,-354.84 408.75,-354.84 402.75,-348.84 402.75,-342.84 402.75,-342.84 402.75,-191.84 402.75,-191.84 402.75,-185.84 408.75,-179.84 414.75,-179.84"/>
<text xml:space="preserve" text-anchor="middle" x="462.75" y="-342.29" font-family="Helvetica,sans-Serif" font-weight="bold" font-size="9.00">css</text>
</g>
<g id="clust8" class="cluster">
<title>cluster_src/css/components</title>
<path fill="#ffffff" stroke="black" stroke-width="2" d="M422.75,-274.84C422.75,-274.84 502.75,-274.84 502.75,-274.84 508.75,-274.84 514.75,-280.84 514.75,-286.84 514.75,-286.84 514.75,-315.84 514.75,-315.84 514.75,-321.84 508.75,-327.84 502.75,-327.84 502.75,-327.84 422.75,-327.84 422.75,-327.84 416.75,-327.84 410.75,-321.84 410.75,-315.84 410.75,-315.84 410.75,-286.84 410.75,-286.84 410.75,-280.84 416.75,-274.84 422.75,-274.84"/>
<text xml:space="preserve" text-anchor="middle" x="462.75" y="-315.29" font-family="Helvetica,sans-Serif" font-weight="bold" font-size="9.00">components</text>
</g>
<g id="clust9" class="cluster">
<title>cluster_src/css/pages</title>
<path fill="#ffffff" stroke="black" stroke-width="2" d="M439.25,-213.84C439.25,-213.84 486.25,-213.84 486.25,-213.84 492.25,-213.84 498.25,-219.84 498.25,-225.84 498.25,-225.84 498.25,-254.84 498.25,-254.84 498.25,-260.84 492.25,-266.84 486.25,-266.84 486.25,-266.84 439.25,-266.84 439.25,-266.84 433.25,-266.84 427.25,-260.84 427.25,-254.84 427.25,-254.84 427.25,-225.84 427.25,-225.84 427.25,-219.84 433.25,-213.84 439.25,-213.84"/>
<text xml:space="preserve" text-anchor="middle" x="462.75" y="-254.29" font-family="Helvetica,sans-Serif" font-weight="bold" font-size="9.00">pages</text>
</g>
<g id="clust10" class="cluster">
<title>cluster_src/hooks</title>
<path fill="#ffffff" stroke="black" stroke-width="2" d="M432.5,-362.84C432.5,-362.84 493,-362.84 493,-362.84 499,-362.84 505,-368.84 505,-374.84 505,-374.84 505,-403.84 505,-403.84 505,-409.84 499,-415.84 493,-415.84 493,-415.84 432.5,-415.84 432.5,-415.84 426.5,-415.84 420.5,-409.84 420.5,-403.84 420.5,-403.84 420.5,-374.84 420.5,-374.84 420.5,-368.84 426.5,-362.84 432.5,-362.84"/>
<text xml:space="preserve" text-anchor="middle" x="462.75" y="-403.29" font-family="Helvetica,sans-Serif" font-weight="bold" font-size="9.00">hooks</text>
</g>
<g id="clust11" class="cluster">
<title>cluster_src/pages</title>
<path fill="#ffffff" stroke="black" stroke-width="2" d="M189.25,-101.84C189.25,-101.84 273,-101.84 273,-101.84 279,-101.84 285,-107.84 285,-113.84 285,-113.84 285,-421.84 285,-421.84 285,-427.84 279,-433.84 273,-433.84 273,-433.84 189.25,-433.84 189.25,-433.84 183.25,-433.84 177.25,-427.84 177.25,-421.84 177.25,-421.84 177.25,-113.84 177.25,-113.84 177.25,-107.84 183.25,-101.84 189.25,-101.84"/>
<text xml:space="preserve" text-anchor="middle" x="231.12" y="-421.29" font-family="Helvetica,sans-Serif" font-weight="bold" font-size="9.00">pages</text>
</g>
<g id="clust12" class="cluster">
<title>cluster_src/routes</title>
<path fill="#ffffff" stroke="black" stroke-width="2" d="M90,-178.84C90,-178.84 157.25,-178.84 157.25,-178.84 163.25,-178.84 169.25,-184.84 169.25,-190.84 169.25,-190.84 169.25,-219.84 169.25,-219.84 169.25,-225.84 163.25,-231.84 157.25,-231.84 157.25,-231.84 90,-231.84 90,-231.84 84,-231.84 78,-225.84 78,-219.84 78,-219.84 78,-190.84 78,-190.84 78,-184.84 84,-178.84 90,-178.84"/>
<text xml:space="preserve" text-anchor="middle" x="123.62" y="-219.29" font-family="Helvetica,sans-Serif" font-weight="bold" font-size="9.00">routes</text>
</g>
<!-- node_modules/react -->
<g id="node1" class="node">
<title>node_modules/react</title>
<g id="a_node1"><a xlink:href="https://www.npmjs.com/package/react" xlink:title="react">
<polygon fill="#c40b0a" fill-opacity="0.101961" stroke="black" points="615.88,-140.09 563.93,-140.09 561.88,-138.03 561.88,-121.59 613.82,-121.59 615.88,-123.64 615.88,-140.09"/>
<polyline fill="none" stroke="black" points="613.82,-138.03 561.88,-138.03"/>
<polyline fill="none" stroke="black" points="613.82,-138.03 613.82,-121.59"/>
<polyline fill="none" stroke="black" points="613.82,-138.03 615.88,-140.09"/>
<text xml:space="preserve" text-anchor="start" x="578.75" y="-127.54" font-family="Helvetica,sans-Serif" font-size="9.00" fill="#c40b0a">react</text>
</a>
</g>
</g>
<!-- node_modules/react&#45;dom -->
<g id="node2" class="node">
<title>node_modules/react&#45;dom</title>
<g id="a_node2"><a xlink:href="https://www.npmjs.com/package/react-dom" xlink:title="react&#45;dom">
<polygon fill="#c40b0a" fill-opacity="0.101961" stroke="black" points="617.5,-78.09 562.31,-78.09 560.25,-76.03 560.25,-59.59 615.44,-59.59 617.5,-61.64 617.5,-78.09"/>
<polyline fill="none" stroke="black" points="615.44,-76.03 560.25,-76.03"/>
<polyline fill="none" stroke="black" points="615.44,-76.03 615.44,-59.59"/>
<polyline fill="none" stroke="black" points="615.44,-76.03 617.5,-78.09"/>
<text xml:space="preserve" text-anchor="start" x="568.25" y="-65.54" font-family="Helvetica,sans-Serif" font-size="9.00" fill="#c40b0a">react&#45;dom</text>
</a>
</g>
</g>
<!-- node_modules/react&#45;router&#45;dom -->
<g id="node3" class="node">
<title>node_modules/react&#45;router&#45;dom</title>
<g id="a_node3"><a xlink:href="https://www.npmjs.com/package/react-router-dom" xlink:title="react&#45;router&#45;dom">
<polygon fill="#c40b0a" fill-opacity="0.101961" stroke="black" points="631,-109.09 548.81,-109.09 546.75,-107.03 546.75,-90.59 628.94,-90.59 631,-92.64 631,-109.09"/>
<polyline fill="none" stroke="black" points="628.94,-107.03 546.75,-107.03"/>
<polyline fill="none" stroke="black" points="628.94,-107.03 628.94,-90.59"/>
<polyline fill="none" stroke="black" points="628.94,-107.03 631,-109.09"/>
<text xml:space="preserve" text-anchor="start" x="554.75" y="-96.54" font-family="Helvetica,sans-Serif" font-size="9.00" fill="#c40b0a">react&#45;router&#45;dom</text>
</a>
</g>
</g>
<!-- src/assets/constants/static.json -->
<g id="node4" class="node">
<title>src/assets/constants/static.json</title>
<g id="a_node4"><a xlink:href="src/assets/constants/static.json" xlink:title="static.json">
<path fill="#ffee44" stroke="black" d="M365.96,-329.09C365.96,-329.09 321.79,-329.09 321.79,-329.09 318.71,-329.09 315.62,-326 315.62,-322.92 315.62,-322.92 315.62,-316.75 315.62,-316.75 315.62,-313.67 318.71,-310.59 321.79,-310.59 321.79,-310.59 365.96,-310.59 365.96,-310.59 369.04,-310.59 372.12,-313.67 372.12,-316.75 372.12,-316.75 372.12,-322.92 372.12,-322.92 372.12,-326 369.04,-329.09 365.96,-329.09"/>
<text xml:space="preserve" text-anchor="start" x="323.62" y="-316.54" font-family="Helvetica,sans-Serif" font-size="9.00">static.json</text>
</a>
</g>
</g>
<!-- src/assets/styles/theme.css -->
<g id="node5" class="node">
<title>src/assets/styles/theme.css</title>
<g id="a_node5"><a xlink:href="src/assets/styles/theme.css" xlink:title="theme.css">
<path fill="#ffffcc" stroke="black" d="M366.33,-390.09C366.33,-390.09 321.42,-390.09 321.42,-390.09 318.33,-390.09 315.25,-387 315.25,-383.92 315.25,-383.92 315.25,-377.75 315.25,-377.75 315.25,-374.67 318.33,-371.59 321.42,-371.59 321.42,-371.59 366.33,-371.59 366.33,-371.59 369.42,-371.59 372.5,-374.67 372.5,-377.75 372.5,-377.75 372.5,-383.92 372.5,-383.92 372.5,-387 369.42,-390.09 366.33,-390.09"/>
<text xml:space="preserve" text-anchor="start" x="323.25" y="-377.54" font-family="Helvetica,sans-Serif" font-size="9.00">theme.css</text>
</a>
</g>
</g>
<!-- src/components/ToggleTheme.jsx -->
<g id="node6" class="node">
<title>src/components/ToggleTheme.jsx</title>
<g id="a_node6"><a xlink:href="src/components/ToggleTheme.jsx" xlink:title="ToggleTheme.jsx">
<path fill="#ffff77" stroke="black" d="M380.58,-260.09C380.58,-260.09 307.17,-260.09 307.17,-260.09 304.08,-260.09 301,-257 301,-253.92 301,-253.92 301,-247.75 301,-247.75 301,-244.67 304.08,-241.59 307.17,-241.59 307.17,-241.59 380.58,-241.59 380.58,-241.59 383.67,-241.59 386.75,-244.67 386.75,-247.75 386.75,-247.75 386.75,-253.92 386.75,-253.92 386.75,-257 383.67,-260.09 380.58,-260.09"/>
<text xml:space="preserve" text-anchor="start" x="309" y="-247.54" font-family="Helvetica,sans-Serif" font-size="9.00">ToggleTheme.jsx</text>
</a>
</g>
</g>
<!-- src/css/components/ToggleTheme.css -->
<g id="node7" class="node">
<title>src/css/components/ToggleTheme.css</title>
<g id="a_node7"><a xlink:href="src/css/components/ToggleTheme.css" xlink:title="ToggleTheme.css">
<path fill="#ffffcc" stroke="black" d="M500.58,-301.09C500.58,-301.09 424.92,-301.09 424.92,-301.09 421.83,-301.09 418.75,-298 418.75,-294.92 418.75,-294.92 418.75,-288.75 418.75,-288.75 418.75,-285.67 421.83,-282.59 424.92,-282.59 424.92,-282.59 500.58,-282.59 500.58,-282.59 503.67,-282.59 506.75,-285.67 506.75,-288.75 506.75,-288.75 506.75,-294.92 506.75,-294.92 506.75,-298 503.67,-301.09 500.58,-301.09"/>
<text xml:space="preserve" text-anchor="start" x="426.75" y="-288.54" font-family="Helvetica,sans-Serif" font-size="9.00">ToggleTheme.css</text>
</a>
</g>
</g>
<!-- src/components/ToggleTheme.jsx&#45;&gt;src/css/components/ToggleTheme.css -->
<g id="edge1" class="edge">
<title>src/components/ToggleTheme.jsx&#45;&gt;src/css/components/ToggleTheme.css</title>
<path fill="none" stroke="#000000" stroke-width="2" stroke-opacity="0.200000" d="M372.57,-260.55C388.58,-266.17 408.9,-273.3 426.09,-279.33"/>
<polygon fill="#000000" fill-opacity="0.200000" stroke="#000000" stroke-width="2" stroke-opacity="0.200000" points="425.04,-281.18 431.39,-281.19 426.43,-277.22 425.04,-281.18"/>
</g>
<!-- src/hooks/useTheme.js -->
<g id="node8" class="node">
<title>src/hooks/useTheme.js</title>
<g id="a_node8"><a xlink:href="src/hooks/useTheme.js" xlink:title="useTheme.js">
<path fill="#ffffcc" stroke="black" d="M490.83,-389.09C490.83,-389.09 434.67,-389.09 434.67,-389.09 431.58,-389.09 428.5,-386 428.5,-382.92 428.5,-382.92 428.5,-376.75 428.5,-376.75 428.5,-373.67 431.58,-370.59 434.67,-370.59 434.67,-370.59 490.83,-370.59 490.83,-370.59 493.92,-370.59 497,-373.67 497,-376.75 497,-376.75 497,-382.92 497,-382.92 497,-386 493.92,-389.09 490.83,-389.09"/>
<text xml:space="preserve" text-anchor="start" x="436.5" y="-376.54" font-family="Helvetica,sans-Serif" font-size="9.00">useTheme.js</text>
</a>
</g>
</g>
<!-- src/components/ToggleTheme.jsx&#45;&gt;src/hooks/useTheme.js -->
<g id="edge2" class="edge">
<title>src/components/ToggleTheme.jsx&#45;&gt;src/hooks/useTheme.js</title>
<path fill="none" stroke="#000000" stroke-width="2" stroke-opacity="0.200000" d="M357.87,-260.26C369.26,-269.2 385.41,-283.65 394.75,-299.84 401.86,-312.16 395.13,-318.82 402.75,-330.84 411.55,-344.71 425.57,-356.6 437.74,-365.18"/>
<polygon fill="#000000" fill-opacity="0.200000" stroke="#000000" stroke-width="2" stroke-opacity="0.200000" points="436.36,-366.78 442.5,-368.4 438.71,-363.3 436.36,-366.78"/>
</g>
<!-- src/hooks/useTheme.js&#45;&gt;node_modules/react -->
<g id="edge3" class="edge">
<title>src/hooks/useTheme.js&#45;&gt;node_modules/react</title>
<path fill="none" stroke="#000000" stroke-opacity="0.200000" d="M483.26,-370.2C498.34,-361.79 518.64,-348.22 530.75,-330.84 571.64,-272.18 583.45,-184.6 586.7,-147.94"/>
<polygon fill="#000000" fill-opacity="0.200000" stroke="#000000" stroke-opacity="0.200000" points="588.79,-148.19 587.18,-142.04 584.6,-147.85 588.79,-148.19"/>
</g>
<!-- src/css/App.css -->
<g id="node9" class="node">
<title>src/css/App.css</title>
<g id="a_node9"><a xlink:href="src/css/App.css" xlink:title="App.css">
<path fill="#ffffcc" stroke="black" d="M483.58,-206.09C483.58,-206.09 441.92,-206.09 441.92,-206.09 438.83,-206.09 435.75,-203 435.75,-199.92 435.75,-199.92 435.75,-193.75 435.75,-193.75 435.75,-190.67 438.83,-187.59 441.92,-187.59 441.92,-187.59 483.58,-187.59 483.58,-187.59 486.67,-187.59 489.75,-190.67 489.75,-193.75 489.75,-193.75 489.75,-199.92 489.75,-199.92 489.75,-203 486.67,-206.09 483.58,-206.09"/>
<text xml:space="preserve" text-anchor="start" x="446.62" y="-193.54" font-family="Helvetica,sans-Serif" font-size="9.00">App.css</text>
</a>
</g>
</g>
<!-- src/css/pages/Login.css -->
<g id="node10" class="node">
<title>src/css/pages/Login.css</title>
<g id="a_node10"><a xlink:href="src/css/pages/Login.css" xlink:title="Login.css">
<path fill="#ffffcc" stroke="black" d="M484.08,-240.09C484.08,-240.09 441.42,-240.09 441.42,-240.09 438.33,-240.09 435.25,-237 435.25,-233.92 435.25,-233.92 435.25,-227.75 435.25,-227.75 435.25,-224.67 438.33,-221.59 441.42,-221.59 441.42,-221.59 484.08,-221.59 484.08,-221.59 487.17,-221.59 490.25,-224.67 490.25,-227.75 490.25,-227.75 490.25,-233.92 490.25,-233.92 490.25,-237 487.17,-240.09 484.08,-240.09"/>
<text xml:space="preserve" text-anchor="start" x="443.25" y="-227.54" font-family="Helvetica,sans-Serif" font-size="9.00">Login.css</text>
</a>
</g>
</g>
<!-- src/index.css -->
<g id="node11" class="node">
<title>src/index.css</title>
<g id="a_node11"><a xlink:href="src/index.css" xlink:title="index.css">
<path fill="#ffffcc" stroke="black" d="M144.58,-258.09C144.58,-258.09 102.67,-258.09 102.67,-258.09 99.58,-258.09 96.5,-255 96.5,-251.92 96.5,-251.92 96.5,-245.75 96.5,-245.75 96.5,-242.67 99.58,-239.59 102.67,-239.59 102.67,-239.59 144.58,-239.59 144.58,-239.59 147.67,-239.59 150.75,-242.67 150.75,-245.75 150.75,-245.75 150.75,-251.92 150.75,-251.92 150.75,-255 147.67,-258.09 144.58,-258.09"/>
<text xml:space="preserve" text-anchor="start" x="104.5" y="-245.54" font-family="Helvetica,sans-Serif" font-size="9.00">index.css</text>
</a>
</g>
</g>
<!-- src/main.jsx -->
<g id="node12" class="node">
<title>src/main.jsx</title>
<g id="a_node12"><a xlink:href="src/main.jsx" xlink:title="main.jsx">
<path fill="#ffff77" stroke="black" d="M63.83,-155.09C63.83,-155.09 22.17,-155.09 22.17,-155.09 19.08,-155.09 16,-152 16,-148.92 16,-148.92 16,-142.75 16,-142.75 16,-139.67 19.08,-136.59 22.17,-136.59 22.17,-136.59 63.83,-136.59 63.83,-136.59 66.92,-136.59 70,-139.67 70,-142.75 70,-142.75 70,-148.92 70,-148.92 70,-152 66.92,-155.09 63.83,-155.09"/>
<text xml:space="preserve" text-anchor="start" x="26.12" y="-142.54" font-family="Helvetica,sans-Serif" font-size="9.00">main.jsx</text>
</a>
</g>
</g>
<!-- src/main.jsx&#45;&gt;node_modules/react -->
<g id="edge7" class="edge">
<title>src/main.jsx&#45;&gt;node_modules/react</title>
<path fill="none" stroke="#000000" stroke-opacity="0.200000" d="M55.36,-136.42C83.23,-114.29 158.01,-60.84 230.12,-60.84 230.12,-60.84 230.12,-60.84 344.88,-60.84 366.06,-60.84 493.49,-100.65 554.87,-120.22"/>
<polygon fill="#000000" fill-opacity="0.200000" stroke="#000000" stroke-opacity="0.200000" points="553.87,-122.11 560.22,-121.93 555.15,-118.11 553.87,-122.11"/>
</g>
<!-- src/main.jsx&#45;&gt;node_modules/react&#45;dom -->
<g id="edge8" class="edge">
<title>src/main.jsx&#45;&gt;node_modules/react&#45;dom</title>
<path fill="none" stroke="#000000" stroke-opacity="0.200000" d="M45.48,-136.25C48.51,-119.99 57.01,-87.1 78,-69.84 131.59,-25.78 160.75,-34.84 230.12,-34.84 230.12,-34.84 230.12,-34.84 344.88,-34.84 419.48,-34.84 505.73,-50.75 552.78,-60.8"/>
<polygon fill="#000000" fill-opacity="0.200000" stroke="#000000" stroke-opacity="0.200000" points="552.2,-62.83 558.51,-62.04 553.09,-58.72 552.2,-62.83"/>
</g>
<!-- src/main.jsx&#45;&gt;node_modules/react&#45;router&#45;dom -->
<g id="edge9" class="edge">
<title>src/main.jsx&#45;&gt;node_modules/react&#45;router&#45;dom</title>
<path fill="none" stroke="#000000" stroke-opacity="0.200000" d="M43.42,-136.1C42.6,-112.75 44.14,-53.4 78,-24.84 129.96,19 162.14,-8.84 230.12,-8.84 230.12,-8.84 230.12,-8.84 344.88,-8.84 431.96,-8.84 462.52,-16.72 530.75,-70.84 536.07,-75.05 533.42,-79.64 538.75,-83.84 540.01,-84.83 541.33,-85.76 542.7,-86.64"/>
<polygon fill="#000000" fill-opacity="0.200000" stroke="#000000" stroke-opacity="0.200000" points="541.39,-88.31 547.66,-89.38 543.43,-84.64 541.39,-88.31"/>
</g>
<!-- src/main.jsx&#45;&gt;src/assets/styles/theme.css -->
<g id="edge4" class="edge">
<title>src/main.jsx&#45;&gt;src/assets/styles/theme.css</title>
<path fill="none" stroke="#000000" stroke-width="2" stroke-opacity="0.200000" d="M44.68,-155.42C48.3,-198.45 69.54,-374.46 177.25,-436.84 218.69,-460.84 240.61,-454.8 285,-436.84 304.68,-428.87 321.38,-410.65 331.71,-397.14"/>
<polygon fill="#000000" fill-opacity="0.200000" stroke="#000000" stroke-width="2" stroke-opacity="0.200000" points="333.14,-398.75 334.98,-392.66 329.75,-396.27 333.14,-398.75"/>
</g>
<!-- src/main.jsx&#45;&gt;src/index.css -->
<g id="edge5" class="edge">
<title>src/main.jsx&#45;&gt;src/index.css</title>
<path fill="none" stroke="#000000" stroke-width="2" stroke-opacity="0.200000" d="M44.94,-155.38C47.23,-173.49 54.75,-212.96 78,-234.84 80.94,-237.6 84.42,-239.82 88.12,-241.6"/>
<polygon fill="#000000" fill-opacity="0.200000" stroke="#000000" stroke-width="2" stroke-opacity="0.200000" points="87.28,-243.53 93.63,-243.75 88.8,-239.62 87.28,-243.53"/>
</g>
<!-- src/routes/AppRoutes.jsx -->
<g id="node13" class="node">
<title>src/routes/AppRoutes.jsx</title>
<g id="a_node13"><a xlink:href="src/routes/AppRoutes.jsx" xlink:title="AppRoutes.jsx">
<path fill="#ffff77" stroke="black" d="M155.08,-205.09C155.08,-205.09 92.17,-205.09 92.17,-205.09 89.08,-205.09 86,-202 86,-198.92 86,-198.92 86,-192.75 86,-192.75 86,-189.67 89.08,-186.59 92.17,-186.59 92.17,-186.59 155.08,-186.59 155.08,-186.59 158.17,-186.59 161.25,-189.67 161.25,-192.75 161.25,-192.75 161.25,-198.92 161.25,-198.92 161.25,-202 158.17,-205.09 155.08,-205.09"/>
<text xml:space="preserve" text-anchor="start" x="94" y="-192.54" font-family="Helvetica,sans-Serif" font-size="9.00">AppRoutes.jsx</text>
</a>
</g>
</g>
<!-- src/main.jsx&#45;&gt;src/routes/AppRoutes.jsx -->
<g id="edge6" class="edge">
<title>src/main.jsx&#45;&gt;src/routes/AppRoutes.jsx</title>
<path fill="none" stroke="#000000" stroke-width="2" stroke-opacity="0.200000" d="M59.16,-155.48C70.8,-162.88 87.05,-173.21 100.19,-181.57"/>
<polygon fill="#000000" fill-opacity="0.200000" stroke="#000000" stroke-width="2" stroke-opacity="0.200000" points="98.77,-183.15 104.96,-184.6 101.02,-179.61 98.77,-183.15"/>
</g>
<!-- src/routes/AppRoutes.jsx&#45;&gt;node_modules/react&#45;router&#45;dom -->
<g id="edge29" class="edge">
<title>src/routes/AppRoutes.jsx&#45;&gt;node_modules/react&#45;router&#45;dom</title>
<path fill="none" stroke="#000000" stroke-opacity="0.200000" d="M126.48,-186.14C131,-165.65 144.65,-118.24 177.25,-98.84 236.95,-63.3 443.8,-82.46 539.1,-93.63"/>
<polygon fill="#000000" fill-opacity="0.200000" stroke="#000000" stroke-opacity="0.200000" points="538.61,-95.68 544.82,-94.3 539.1,-91.51 538.61,-95.68"/>
</g>
<!-- src/pages/Account.jsx -->
<g id="node14" class="node">
<title>src/pages/Account.jsx</title>
<g id="a_node14"><a xlink:href="src/pages/Account.jsx" xlink:title="Account.jsx">
<path fill="#ffff77" stroke="black" d="M256.21,-314.09C256.21,-314.09 206.04,-314.09 206.04,-314.09 202.96,-314.09 199.88,-311 199.88,-307.92 199.88,-307.92 199.88,-301.75 199.88,-301.75 199.88,-298.67 202.96,-295.59 206.04,-295.59 206.04,-295.59 256.21,-295.59 256.21,-295.59 259.29,-295.59 262.38,-298.67 262.38,-301.75 262.38,-301.75 262.38,-307.92 262.38,-307.92 262.38,-311 259.29,-314.09 256.21,-314.09"/>
<text xml:space="preserve" text-anchor="start" x="207.88" y="-301.54" font-family="Helvetica,sans-Serif" font-size="9.00">Account.jsx</text>
</a>
</g>
</g>
<!-- src/routes/AppRoutes.jsx&#45;&gt;src/pages/Account.jsx -->
<g id="edge20" class="edge">
<title>src/routes/AppRoutes.jsx&#45;&gt;src/pages/Account.jsx</title>
<path fill="none" stroke="#000000" stroke-width="2" stroke-opacity="0.200000" d="M161.5,-202.44C164.43,-204.13 167.08,-206.23 169.25,-208.84 192.09,-236.32 154.55,-261.24 177.25,-288.84 180.89,-293.26 185.71,-296.49 190.96,-298.84"/>
<polygon fill="#000000" fill-opacity="0.200000" stroke="#000000" stroke-width="2" stroke-opacity="0.200000" points="190.24,-300.82 196.6,-300.85 191.65,-296.86 190.24,-300.82"/>
</g>
<!-- src/pages/Dashboard.jsx -->
<g id="node16" class="node">
<title>src/pages/Dashboard.jsx</title>
<g id="a_node16"><a xlink:href="src/pages/Dashboard.jsx" xlink:title="Dashboard.jsx">
<path fill="#ffff77" stroke="black" d="M262.58,-345.09C262.58,-345.09 199.67,-345.09 199.67,-345.09 196.58,-345.09 193.5,-342 193.5,-338.92 193.5,-338.92 193.5,-332.75 193.5,-332.75 193.5,-329.67 196.58,-326.59 199.67,-326.59 199.67,-326.59 262.58,-326.59 262.58,-326.59 265.67,-326.59 268.75,-329.67 268.75,-332.75 268.75,-332.75 268.75,-338.92 268.75,-338.92 268.75,-342 265.67,-345.09 262.58,-345.09"/>
<text xml:space="preserve" text-anchor="start" x="201.5" y="-332.54" font-family="Helvetica,sans-Serif" font-size="9.00">Dashboard.jsx</text>
</a>
</g>
</g>
<!-- src/routes/AppRoutes.jsx&#45;&gt;src/pages/Dashboard.jsx -->
<g id="edge22" class="edge">
<title>src/routes/AppRoutes.jsx&#45;&gt;src/pages/Dashboard.jsx</title>
<path fill="none" stroke="#000000" stroke-width="2" stroke-opacity="0.200000" d="M161.58,-202.38C164.49,-204.08 167.12,-206.2 169.25,-208.84 184.79,-228.07 161.81,-300.52 177.25,-319.84 179.48,-322.62 182.17,-324.94 185.15,-326.86"/>
<polygon fill="#000000" fill-opacity="0.200000" stroke="#000000" stroke-width="2" stroke-opacity="0.200000" points="184.05,-328.65 190.35,-329.5 185.95,-324.91 184.05,-328.65"/>
</g>
<!-- src/pages/Group.jsx -->
<g id="node17" class="node">
<title>src/pages/Group.jsx</title>
<g id="a_node17"><a xlink:href="src/pages/Group.jsx" xlink:title="Group.jsx">
<path fill="#ffff77" stroke="black" d="M252.46,-128.09C252.46,-128.09 209.79,-128.09 209.79,-128.09 206.71,-128.09 203.62,-125 203.62,-121.92 203.62,-121.92 203.62,-115.75 203.62,-115.75 203.62,-112.67 206.71,-109.59 209.79,-109.59 209.79,-109.59 252.46,-109.59 252.46,-109.59 255.54,-109.59 258.62,-112.67 258.62,-115.75 258.62,-115.75 258.62,-121.92 258.62,-121.92 258.62,-125 255.54,-128.09 252.46,-128.09"/>
<text xml:space="preserve" text-anchor="start" x="211.62" y="-115.54" font-family="Helvetica,sans-Serif" font-size="9.00">Group.jsx</text>
</a>
</g>
</g>
<!-- src/routes/AppRoutes.jsx&#45;&gt;src/pages/Group.jsx -->
<g id="edge23" class="edge">
<title>src/routes/AppRoutes.jsx&#45;&gt;src/pages/Group.jsx</title>
<path fill="none" stroke="#000000" stroke-width="2" stroke-opacity="0.200000" d="M130.2,-186.53C138.7,-173.14 156.14,-148.56 177.25,-134.84 182.61,-131.35 188.77,-128.6 194.94,-126.43"/>
<polygon fill="#000000" fill-opacity="0.200000" stroke="#000000" stroke-width="2" stroke-opacity="0.200000" points="195.31,-128.51 200.41,-124.72 194.05,-124.5 195.31,-128.51"/>
</g>
<!-- src/pages/History.jsx -->
<g id="node18" class="node">
<title>src/pages/History.jsx</title>
<g id="a_node18"><a xlink:href="src/pages/History.jsx" xlink:title="History.jsx">
<path fill="#ffff77" stroke="black" d="M253.58,-159.09C253.58,-159.09 208.67,-159.09 208.67,-159.09 205.58,-159.09 202.5,-156 202.5,-152.92 202.5,-152.92 202.5,-146.75 202.5,-146.75 202.5,-143.67 205.58,-140.59 208.67,-140.59 208.67,-140.59 253.58,-140.59 253.58,-140.59 256.67,-140.59 259.75,-143.67 259.75,-146.75 259.75,-146.75 259.75,-152.92 259.75,-152.92 259.75,-156 256.67,-159.09 253.58,-159.09"/>
<text xml:space="preserve" text-anchor="start" x="210.5" y="-146.54" font-family="Helvetica,sans-Serif" font-size="9.00">History.jsx</text>
</a>
</g>
</g>
<!-- src/routes/AppRoutes.jsx&#45;&gt;src/pages/History.jsx -->
<g id="edge24" class="edge">
<title>src/routes/AppRoutes.jsx&#45;&gt;src/pages/History.jsx</title>
<path fill="none" stroke="#000000" stroke-width="2" stroke-opacity="0.200000" d="M139.36,-186.24C149.67,-179.84 163.92,-171.57 177.25,-165.84 182.58,-163.55 188.34,-161.45 194.03,-159.57"/>
<polygon fill="#000000" fill-opacity="0.200000" stroke="#000000" stroke-width="2" stroke-opacity="0.200000" points="194.28,-161.7 199.37,-157.9 193.02,-157.69 194.28,-161.7"/>
</g>
<!-- src/pages/Home.jsx -->
<g id="node19" class="node">
<title>src/pages/Home.jsx</title>
<g id="a_node19"><a xlink:href="src/pages/Home.jsx" xlink:title="Home.jsx">
<path fill="#ffff77" stroke="black" d="M252.08,-190.09C252.08,-190.09 210.17,-190.09 210.17,-190.09 207.08,-190.09 204,-187 204,-183.92 204,-183.92 204,-177.75 204,-177.75 204,-174.67 207.08,-171.59 210.17,-171.59 210.17,-171.59 252.08,-171.59 252.08,-171.59 255.17,-171.59 258.25,-174.67 258.25,-177.75 258.25,-177.75 258.25,-183.92 258.25,-183.92 258.25,-187 255.17,-190.09 252.08,-190.09"/>
<text xml:space="preserve" text-anchor="start" x="212" y="-177.54" font-family="Helvetica,sans-Serif" font-size="9.00">Home.jsx</text>
</a>
</g>
</g>
<!-- src/routes/AppRoutes.jsx&#45;&gt;src/pages/Home.jsx -->
<g id="edge25" class="edge">
<title>src/routes/AppRoutes.jsx&#45;&gt;src/pages/Home.jsx</title>
<path fill="none" stroke="#000000" stroke-width="2" stroke-opacity="0.200000" d="M161.52,-190.59C172.39,-189.05 184.24,-187.36 194.99,-185.83"/>
<polygon fill="#000000" fill-opacity="0.200000" stroke="#000000" stroke-width="2" stroke-opacity="0.200000" points="195.07,-187.94 200.71,-185.02 194.48,-183.78 195.07,-187.94"/>
</g>
<!-- src/pages/Login.jsx -->
<g id="node20" class="node">
<title>src/pages/Login.jsx</title>
<g id="a_node20"><a xlink:href="src/pages/Login.jsx" xlink:title="Login.jsx">
<path fill="#ffff77" stroke="black" d="M251.96,-221.09C251.96,-221.09 210.29,-221.09 210.29,-221.09 207.21,-221.09 204.12,-218 204.12,-214.92 204.12,-214.92 204.12,-208.75 204.12,-208.75 204.12,-205.67 207.21,-202.59 210.29,-202.59 210.29,-202.59 251.96,-202.59 251.96,-202.59 255.04,-202.59 258.12,-205.67 258.12,-208.75 258.12,-208.75 258.12,-214.92 258.12,-214.92 258.12,-218 255.04,-221.09 251.96,-221.09"/>
<text xml:space="preserve" text-anchor="start" x="212.75" y="-208.54" font-family="Helvetica,sans-Serif" font-size="9.00">Login.jsx</text>
</a>
</g>
</g>
<!-- src/routes/AppRoutes.jsx&#45;&gt;src/pages/Login.jsx -->
<g id="edge26" class="edge">
<title>src/routes/AppRoutes.jsx&#45;&gt;src/pages/Login.jsx</title>
<path fill="none" stroke="#000000" stroke-width="2" stroke-opacity="0.200000" d="M161.52,-201.43C172.39,-203.08 184.24,-204.88 194.99,-206.51"/>
<polygon fill="#000000" fill-opacity="0.200000" stroke="#000000" stroke-width="2" stroke-opacity="0.200000" points="194.47,-208.55 200.72,-207.38 195.1,-204.4 194.47,-208.55"/>
</g>
<!-- src/pages/PageNotFound.jsx -->
<g id="node21" class="node">
<title>src/pages/PageNotFound.jsx</title>
<g id="a_node21"><a xlink:href="src/pages/PageNotFound.jsx" xlink:title="PageNotFound.jsx">
<path fill="#ffff77" stroke="black" d="M270.83,-252.09C270.83,-252.09 191.42,-252.09 191.42,-252.09 188.33,-252.09 185.25,-249 185.25,-245.92 185.25,-245.92 185.25,-239.75 185.25,-239.75 185.25,-236.67 188.33,-233.59 191.42,-233.59 191.42,-233.59 270.83,-233.59 270.83,-233.59 273.92,-233.59 277,-236.67 277,-239.75 277,-239.75 277,-245.92 277,-245.92 277,-249 273.92,-252.09 270.83,-252.09"/>
<text xml:space="preserve" text-anchor="start" x="193.25" y="-239.54" font-family="Helvetica,sans-Serif" font-size="9.00">PageNotFound.jsx</text>
</a>
</g>
</g>
<!-- src/routes/AppRoutes.jsx&#45;&gt;src/pages/PageNotFound.jsx -->
<g id="edge27" class="edge">
<title>src/routes/AppRoutes.jsx&#45;&gt;src/pages/PageNotFound.jsx</title>
<path fill="none" stroke="#000000" stroke-width="2" stroke-opacity="0.200000" d="M161.57,-203.67C164.33,-205.12 166.94,-206.82 169.25,-208.84 175.84,-214.6 170.69,-221.04 177.25,-226.84 177.86,-227.38 178.49,-227.9 179.14,-228.41"/>
<polygon fill="#000000" fill-opacity="0.200000" stroke="#000000" stroke-width="2" stroke-opacity="0.200000" points="177.86,-230.08 184.05,-231.54 180.13,-226.54 177.86,-230.08"/>
</g>
<!-- src/pages/Signup.jsx -->
<g id="node22" class="node">
<title>src/pages/Signup.jsx</title>
<g id="a_node22"><a xlink:href="src/pages/Signup.jsx" xlink:title="Signup.jsx">
<path fill="#ffff77" stroke="black" d="M254.33,-283.09C254.33,-283.09 207.92,-283.09 207.92,-283.09 204.83,-283.09 201.75,-280 201.75,-276.92 201.75,-276.92 201.75,-270.75 201.75,-270.75 201.75,-267.67 204.83,-264.59 207.92,-264.59 207.92,-264.59 254.33,-264.59 254.33,-264.59 257.42,-264.59 260.5,-267.67 260.5,-270.75 260.5,-270.75 260.5,-276.92 260.5,-276.92 260.5,-280 257.42,-283.09 254.33,-283.09"/>
<text xml:space="preserve" text-anchor="start" x="209.75" y="-270.54" font-family="Helvetica,sans-Serif" font-size="9.00">Signup.jsx</text>
</a>
</g>
</g>
<!-- src/routes/AppRoutes.jsx&#45;&gt;src/pages/Signup.jsx -->
<g id="edge28" class="edge">
<title>src/routes/AppRoutes.jsx&#45;&gt;src/pages/Signup.jsx</title>
<path fill="none" stroke="#000000" stroke-width="2" stroke-opacity="0.200000" d="M161.33,-202.58C164.29,-204.24 167,-206.3 169.25,-208.84 183.88,-225.36 162.71,-241.24 177.25,-257.84 181.46,-262.65 187.07,-266.04 193.06,-268.42"/>
<polygon fill="#000000" fill-opacity="0.200000" stroke="#000000" stroke-width="2" stroke-opacity="0.200000" points="192.13,-270.33 198.48,-270.16 193.41,-266.33 192.13,-270.33"/>
</g>
<!-- src/pages/app.jsx -->
<g id="node23" class="node">
<title>src/pages/app.jsx</title>
<g id="a_node23"><a xlink:href="src/pages/app.jsx" xlink:title="app.jsx">
<path fill="#ffff77" stroke="black" d="M251.96,-376.09C251.96,-376.09 210.29,-376.09 210.29,-376.09 207.21,-376.09 204.12,-373 204.12,-369.92 204.12,-369.92 204.12,-363.75 204.12,-363.75 204.12,-360.67 207.21,-357.59 210.29,-357.59 210.29,-357.59 251.96,-357.59 251.96,-357.59 255.04,-357.59 258.12,-360.67 258.12,-363.75 258.12,-363.75 258.12,-369.92 258.12,-369.92 258.12,-373 255.04,-376.09 251.96,-376.09"/>
<text xml:space="preserve" text-anchor="start" x="216.5" y="-363.54" font-family="Helvetica,sans-Serif" font-size="9.00">app.jsx</text>
</a>
</g>
</g>
<!-- src/routes/AppRoutes.jsx&#45;&gt;src/pages/app.jsx -->
<g id="edge21" class="edge">
<title>src/routes/AppRoutes.jsx&#45;&gt;src/pages/app.jsx</title>
<path fill="none" stroke="#000000" stroke-width="2" stroke-opacity="0.200000" d="M161.62,-202.34C164.52,-204.05 167.14,-206.18 169.25,-208.84 188.92,-233.58 157.71,-326 177.25,-350.84 181.81,-356.63 188.4,-360.39 195.4,-362.81"/>
<polygon fill="#000000" fill-opacity="0.200000" stroke="#000000" stroke-width="2" stroke-opacity="0.200000" points="194.43,-364.73 200.77,-364.28 195.54,-360.67 194.43,-364.73"/>
</g>
<!-- src/pages/App.jsx -->
<g id="node15" class="node">
<title>src/pages/App.jsx</title>
<g id="a_node15"><a xlink:href="src/pages/App.jsx" xlink:title="App.jsx">
<path fill="#ffff77" stroke="black" d="M251.96,-407.09C251.96,-407.09 210.29,-407.09 210.29,-407.09 207.21,-407.09 204.12,-404 204.12,-400.92 204.12,-400.92 204.12,-394.75 204.12,-394.75 204.12,-391.67 207.21,-388.59 210.29,-388.59 210.29,-388.59 251.96,-388.59 251.96,-388.59 255.04,-388.59 258.12,-391.67 258.12,-394.75 258.12,-394.75 258.12,-400.92 258.12,-400.92 258.12,-404 255.04,-407.09 251.96,-407.09"/>
<text xml:space="preserve" text-anchor="start" x="216.12" y="-394.54" font-family="Helvetica,sans-Serif" font-size="9.00">App.jsx</text>
</a>
</g>
</g>
<!-- src/pages/App.jsx&#45;&gt;node_modules/react&#45;router&#45;dom -->
<g id="edge13" class="edge">
<title>src/pages/App.jsx&#45;&gt;node_modules/react&#45;router&#45;dom</title>
<path fill="none" stroke="#000000" stroke-opacity="0.200000" d="M258.61,-396.12C268.43,-394.07 278.7,-389.94 285,-381.84 297.42,-365.85 280.87,-216.04 293,-199.84 300.98,-189.18 471.39,-135.68 549.44,-111.61"/>
<polygon fill="#000000" fill-opacity="0.200000" stroke="#000000" stroke-opacity="0.200000" points="549.69,-113.73 554.8,-109.95 548.45,-109.71 549.69,-113.73"/>
</g>
<!-- src/pages/App.jsx&#45;&gt;src/assets/constants/static.json -->
<g id="edge10" class="edge">
<title>src/pages/App.jsx&#45;&gt;src/assets/constants/static.json</title>
<path fill="none" stroke="#000000" stroke-width="2" stroke-opacity="0.200000" d="M258.47,-394.74C267.8,-392.48 277.77,-388.57 285,-381.84 292.31,-375.03 287.17,-368.95 293,-360.84 300.33,-350.64 310.8,-341.52 320.25,-334.48"/>
<polygon fill="#000000" fill-opacity="0.200000" stroke="#000000" stroke-width="2" stroke-opacity="0.200000" points="321.4,-336.24 325.07,-331.05 318.97,-332.82 321.4,-336.24"/>
</g>
<!-- src/pages/App.jsx&#45;&gt;src/components/ToggleTheme.jsx -->
<g id="edge11" class="edge">
<title>src/pages/App.jsx&#45;&gt;src/components/ToggleTheme.jsx</title>
<path fill="none" stroke="#000000" stroke-width="2" stroke-opacity="0.200000" d="M258.39,-395.95C268.19,-393.87 278.49,-389.77 285,-381.84 296.61,-367.68 285.11,-316.36 293,-299.84 299.46,-286.31 311.3,-274.43 321.82,-265.76"/>
<polygon fill="#000000" fill-opacity="0.200000" stroke="#000000" stroke-width="2" stroke-opacity="0.200000" points="322.99,-267.5 326.42,-262.15 320.41,-264.2 322.99,-267.5"/>
</g>
<!-- src/pages/App.jsx&#45;&gt;src/css/App.css -->
<g id="edge12" class="edge">
<title>src/pages/App.jsx&#45;&gt;src/css/App.css</title>
<path fill="none" stroke="#000000" stroke-width="2" stroke-opacity="0.200000" d="M258.58,-396.09C268.39,-394.03 278.67,-389.91 285,-381.84 305.73,-355.39 271.03,-256.27 293,-230.84 310.05,-211.1 382.33,-202.47 426.58,-198.98"/>
<polygon fill="#000000" fill-opacity="0.200000" stroke="#000000" stroke-width="2" stroke-opacity="0.200000" points="426.72,-201.07 432.54,-198.53 426.4,-196.88 426.72,-201.07"/>
</g>
<!-- src/pages/Home.jsx&#45;&gt;node_modules/react&#45;router&#45;dom -->
<g id="edge14" class="edge">
<title>src/pages/Home.jsx&#45;&gt;node_modules/react&#45;router&#45;dom</title>
<path fill="none" stroke="#000000" stroke-opacity="0.200000" d="M258.52,-176.17C267.45,-173.76 277.14,-170.16 285,-164.84 289.71,-161.65 288.12,-157.76 293,-154.84 370.14,-108.57 477.43,-99.7 539.06,-98.82"/>
<polygon fill="#000000" fill-opacity="0.200000" stroke="#000000" stroke-opacity="0.200000" points="538.85,-100.93 544.83,-98.77 538.81,-96.73 538.85,-100.93"/>
</g>
<!-- src/pages/Login.jsx&#45;&gt;src/css/pages/Login.css -->
<g id="edge15" class="edge">
<title>src/pages/Login.jsx&#45;&gt;src/css/pages/Login.css</title>
<path fill="none" stroke="#000000" stroke-width="2" stroke-opacity="0.200000" d="M258.47,-214.02C299.77,-217.43 379.84,-224.06 426.21,-227.9"/>
<polygon fill="#000000" fill-opacity="0.200000" stroke="#000000" stroke-width="2" stroke-opacity="0.200000" points="425.84,-229.97 431.99,-228.38 426.19,-225.79 425.84,-229.97"/>
</g>
<!-- src/pages/app.jsx&#45;&gt;node_modules/react&#45;router&#45;dom -->
<g id="edge19" class="edge">
<title>src/pages/app.jsx&#45;&gt;node_modules/react&#45;router&#45;dom</title>
<path fill="none" stroke="#000000" stroke-opacity="0.200000" d="M258.35,-365.19C268.26,-363.15 278.66,-359.03 285,-350.84 298.34,-333.6 278.73,-171.32 293,-154.84 324.49,-118.46 464.16,-105.94 539.43,-101.79"/>
<polygon fill="#000000" fill-opacity="0.200000" stroke="#000000" stroke-opacity="0.200000" points="539.12,-103.91 545,-101.5 538.89,-99.72 539.12,-103.91"/>
</g>
<!-- src/pages/app.jsx&#45;&gt;src/assets/constants/static.json -->
<g id="edge16" class="edge">
<title>src/pages/app.jsx&#45;&gt;src/assets/constants/static.json</title>
<path fill="none" stroke="#000000" stroke-width="2" stroke-opacity="0.200000" d="M258.57,-359.95C267.13,-357.43 276.58,-354.32 285,-350.84 296.63,-346.02 309,-339.59 319.31,-333.83"/>
<polygon fill="#000000" fill-opacity="0.200000" stroke="#000000" stroke-width="2" stroke-opacity="0.200000" points="320.27,-335.7 324.45,-330.9 318.19,-332.05 320.27,-335.7"/>
</g>
<!-- src/pages/app.jsx&#45;&gt;src/components/ToggleTheme.jsx -->
<g id="edge17" class="edge">
<title>src/pages/app.jsx&#45;&gt;src/components/ToggleTheme.jsx</title>
<path fill="none" stroke="#000000" stroke-width="2" stroke-opacity="0.200000" d="M258.44,-364.69C268.11,-362.57 278.33,-358.51 285,-350.84 300.06,-333.53 282.51,-320.24 293,-299.84 299.85,-286.51 311.7,-274.63 322.13,-265.91"/>
<polygon fill="#000000" fill-opacity="0.200000" stroke="#000000" stroke-width="2" stroke-opacity="0.200000" points="323.3,-267.67 326.68,-262.29 320.68,-264.39 323.3,-267.67"/>
</g>
<!-- src/pages/app.jsx&#45;&gt;src/css/App.css -->
<g id="edge18" class="edge">
<title>src/pages/app.jsx&#45;&gt;src/css/App.css</title>
<path fill="none" stroke="#000000" stroke-width="2" stroke-opacity="0.200000" d="M258.56,-365.09C268.38,-363.02 278.66,-358.91 285,-350.84 294.9,-338.24 281.69,-218.19 293,-206.84 327.57,-172.14 388.78,-178.43 427.2,-187.01"/>
<polygon fill="#000000" fill-opacity="0.200000" stroke="#000000" stroke-width="2" stroke-opacity="0.200000" points="426.24,-188.94 432.56,-188.29 427.21,-184.86 426.24,-188.94"/>
</g>
</g>
</svg>
